<svg xmlns="http://www.w3.org/2000/svg" xmlns:xlink="http://www.w3.org/1999/xlink" width="560" height="439" viewBox="0 0 560 439"><defs><clipPath id="b"><rect width="560" height="439"/></clipPath></defs><g id="a" clip-path="url(#b)"><g transform="translate(-973 -1196)"><path d="M-3745.881-1230.208c13.31-21.964,7.046-32.946,6.263-61.185s-10.178-39.221,16.441-62.753,70.463-25.886,70.463-25.886,19.573-.785,64.2,11.766,58.719,10.982,58.719,10.982,50.107-3.922,74.377-25.886,70.462-41.574,108.825-34.514,93.167,32.161,82.99,86.286-22.7,94.13-14.093,126.291,52.914,97.723,22.927,140.635-86.668,43.949-142.876,31.014-50.706-19.913-101.6-22.267-77.53,12.991-77.53,12.991-49.324,40.005-110.391,38.436-117.438-59.616-111.957-117.663S-3759.19-1208.245-3745.881-1230.208Z" transform="translate(4774.488 2616.147)" fill="#004ba5" opacity="0.06"/><path d="M-3752.672-1254.143c11.624-19.181,6.154-28.772,5.47-53.434s-8.889-34.252,14.358-54.8,61.537-22.607,61.537-22.607,17.093-.685,56.066,10.276,51.28,9.591,51.28,9.591,43.759-3.425,64.955-22.606,61.536-36.307,95.039-30.142,81.365,28.087,72.476,75.355-19.829,82.205-12.307,110.292,46.211,85.343,20.022,122.819-75.689,38.382-124.776,27.085-44.283-17.391-88.726-19.446-67.708,11.346-67.708,11.346-43.075,34.937-96.407,33.567-102.561-52.063-97.773-102.757S-3764.3-1234.962-3752.672-1254.143Z" transform="translate(3721.811 4248.701) rotate(30)" fill="#004ba5" opacity="0.06"/><path d="M352.11,306.37c-.07-2.28-16.06-4.19-42.46-5.5-3.91-.19-4.25-2.45-.43-2.87,5.71-.64,8.82-1.29,8.8-1.94-.09-2.84-60.07-4.47-133.98-3.65s-133.74,3.8-133.65,6.64c.02.73,3.95,1.37,11.02,1.92,2.32.18,2.2,1.54-.15,1.68C23.68,304.74-.09,307.51,0,310.3c.09,2.77,23.55,4.98,60.59,6.26,2.74.09,4.47,1.08,4.4,2.2v.02c.09,2.84,60.07,4.47,133.98,3.65s133.74-3.8,133.65-6.64c-.01-.42-1.36-.82-3.89-1.19-4.08-.59-3.62-3,.61-3.43C343.88,309.66,352.17,308.02,352.11,306.37Z" transform="translate(1076 1207.704)" fill="#9fcbff" opacity="0.7"/><g transform="translate(1076 1207.704)"><path d="M122.79,256.26s6.91-5.15,26.94-18.03c43.39-27.9,59.22-77.59,27.91-83.38-30.87-5.7-40.46,36.59-54.44,70.24-6.17,14.85-12.75,21.27-12.75,21.27Z" fill="#0071cf"/><path d="M182.02,156.06c-6.99,16.56-18.25,40.99-29.07,54.57-10.09,12.67-26.2,28.4-37.96,39.37l7.79,6.25s6.91-5.15,26.94-18.03C190.92,211.73,207.27,165.6,182.02,156.06Z" fill="#0071cf" opacity="0.54"/><path d="M182.02,156.06c-1.73,4.55-3.6,9.04-5.5,13.52q-2.925,6.69-6.1,13.27A174.676,174.676,0,0,1,155.8,208.2a210.675,210.675,0,0,1-19.46,21.85q-5.175,5.16-10.49,10.16c-3.58,3.3-7.16,6.59-10.84,9.78,3.43-3.45,6.9-6.86,10.29-10.34,3.43-3.45,6.82-6.92,10.16-10.46,3.32-3.54,6.65-7.08,9.85-10.73s6.39-7.31,9.2-11.21c5.65-7.83,10.32-16.37,14.82-24.96,2.25-4.3,4.4-8.66,6.49-13.05C177.94,164.89,179.96,160.47,182.02,156.06Z" fill="#1c47c1"/><path d="M188.8,180.42c-.68,1-1.43,1.96-2.17,2.93-.8.91-1.63,1.81-2.48,2.69a33.514,33.514,0,0,1-5.8,4.51,23.268,23.268,0,0,1-6.82,2.85c-.61.11-1.22.25-1.83.32a16.4,16.4,0,0,1-1.85.11,10.36,10.36,0,0,1-3.63-.55,14.076,14.076,0,0,0,3.56-.24,24.308,24.308,0,0,0,3.41-.86,31.156,31.156,0,0,0,6.33-3.02,54.109,54.109,0,0,0,5.8-4.07l2.75-2.3C186.96,181.99,187.85,181.18,188.8,180.42Z" fill="#1c47c1"/><path d="M187.65,170.39c-.47.69-.99,1.33-1.49,2.01-.55.63-1.11,1.24-1.7,1.84a22.971,22.971,0,0,1-3.97,3.09,16.114,16.114,0,0,1-4.67,1.95,9.358,9.358,0,0,1-5.01-.08,9.462,9.462,0,0,0,2.44-.16,15.717,15.717,0,0,0,2.34-.59,21.586,21.586,0,0,0,4.34-2.07,36.9,36.9,0,0,0,3.97-2.79l1.88-1.58C186.4,171.48,186.99,170.91,187.65,170.39Z" fill="#1c47c1"/><path d="M152.83,227.74c-.65.52-1.34.97-2.02,1.47-.71.43-1.44.85-2.17,1.25a22.486,22.486,0,0,1-4.72,1.75,15.819,15.819,0,0,1-5.04.46,9.437,9.437,0,0,1-4.75-1.58,9.545,9.545,0,0,0,2.37.58,17.71,17.71,0,0,0,2.41.14,21.341,21.341,0,0,0,4.76-.67,39.362,39.362,0,0,0,4.63-1.46l2.27-.94C151.31,228.4,152.05,228.04,152.83,227.74Z" fill="#1c47c1"/><path d="M181.01,196.96c-.77,1.06-1.58,2.11-2.42,3.13-.93.93-1.8,1.94-2.83,2.79a30.13,30.13,0,0,1-6.66,4.42,24.776,24.776,0,0,1-7.72,2.17,17.089,17.089,0,0,1-7.88-.85,25.335,25.335,0,0,0,7.69-.39,32.518,32.518,0,0,0,7.22-2.38,32.993,32.993,0,0,0,3.36-1.82c1.13-.6,2.13-1.4,3.21-2.12.55-.34,1.02-.79,1.53-1.18l1.53-1.2C179.03,198.67,179.98,197.79,181.01,196.96Z" fill="#1c47c1"/><path d="M171.59,213.63a31.03,31.03,0,0,1-2.43,2.85,20.3,20.3,0,0,1-2.92,2.39,20.558,20.558,0,0,1-6.92,3.13,25.289,25.289,0,0,1-3.77.6l-1.91.03c-.63-.02-1.27-.08-1.9-.13a19.238,19.238,0,0,1-7.18-2.15,34.652,34.652,0,0,0,7.25.9,26.857,26.857,0,0,0,7.11-.81,25.276,25.276,0,0,0,6.64-2.63,29.785,29.785,0,0,0,3.07-1.93C169.67,215.19,170.57,214.35,171.59,213.63Z" fill="#1c47c1"/><path d="M139.55,225.04a21.927,21.927,0,0,1-2.01-5.64,34.127,34.127,0,0,1-.69-5.96,38.556,38.556,0,0,1,.34-5.98,28.448,28.448,0,0,1,1.36-5.82c-.06,3.98-.2,7.87-.1,11.75.02,1.94.17,3.87.32,5.81C138.94,221.14,139.24,223.06,139.55,225.04Z" fill="#1c47c1"/><path d="M151.32,212.63a27.235,27.235,0,0,1-3.67-7.85,40.411,40.411,0,0,1-1.39-8.59,50.211,50.211,0,0,1,.36-8.67,40.965,40.965,0,0,1,1.92-8.42,109.133,109.133,0,0,0-.68,17.01,63.667,63.667,0,0,0,1,8.38A50.634,50.634,0,0,0,151.32,212.63Z" fill="#1c47c1"/><path d="M162.57,197.01a15.51,15.51,0,0,1-3.63-7.02,31.076,31.076,0,0,1-.89-7.91,46.132,46.132,0,0,1,.76-7.88,40.709,40.709,0,0,1,2.08-7.6c-.31,2.61-.61,5.19-.84,7.77s-.39,5.15-.4,7.72a46.347,46.347,0,0,0,.51,7.64A21.839,21.839,0,0,0,162.57,197.01Z" fill="#1c47c1"/><path d="M169.5,183.14a18.939,18.939,0,0,1-1.37-5.03,21.439,21.439,0,0,1-.06-5.25,20.244,20.244,0,0,1,1.25-5.1,14.786,14.786,0,0,1,2.61-4.52,38.419,38.419,0,0,0-1.55,4.85,36.181,36.181,0,0,0-.9,4.93,38.044,38.044,0,0,0-.25,5.01C169.23,179.72,169.4,181.4,169.5,183.14Z" fill="#1c47c1"/><path d="M128.46,237.5a17.567,17.567,0,0,1-1.02-4.66,22.573,22.573,0,0,1,.1-4.79,23.827,23.827,0,0,1,2.93-9.02c-.43,1.53-.77,3.05-1.11,4.57-.31,1.52-.58,3.05-.77,4.59a37.627,37.627,0,0,0-.33,4.62C128.23,234.37,128.35,235.92,128.46,237.5Z" fill="#1c47c1"/><path d="M118.04,258.72s4.13-12.97,17.61-47.68c29.23-75.2,10.2-157.8-30.36-139.73-40,17.83-19.32,84.89-10.2,143.54,4.02,25.88,1.23,40.35,1.23,40.35Z" fill="#1c47c1"/><path d="M111.27,69.35c4.36,28.96,9.68,72.48,7.38,100.48-2.15,26.13-8.97,61.53-14.32,86.68l13.71,2.22s4.13-12.97,17.61-47.68C163.41,139.64,147.66,61.58,111.27,69.35Z" fill="#1c47c1" opacity="0.54"/><path d="M111.27,69.35c1.44,7.74,2.64,15.52,3.82,23.31q1.65,11.7,2.93,23.45c1.67,15.67,2.76,31.44,2.21,47.27-.34,7.94-1.27,15.77-2.3,23.59-1.09,7.81-2.3,15.6-3.75,23.34q-2.13,11.625-4.56,23.18c-1.69,7.69-3.38,15.38-5.29,23.02,1.37-7.75,2.83-15.48,4.13-23.24,1.38-7.74,2.7-15.5,3.9-23.26,1.17-7.77,2.37-15.54,3.32-23.33s1.87-15.6,2.16-23.39c.33-7.81.18-15.66-.14-23.49-.3-7.84-.9-15.67-1.5-23.51-.63-7.83-1.4-15.66-2.26-23.47C113.15,84.97,112.18,77.17,111.27,69.35Z" fill="#0036ac"/><path d="M137.42,97.69c0,1.86-.12,3.73-.22,5.6-.18,1.86-.47,3.71-.75,5.56-.34,1.84-.81,3.66-1.26,5.49-.27.9-.58,1.79-.87,2.69l-.44,1.34-.53,1.32a37.3,37.3,0,0,1-5.66,9.84,11.908,11.908,0,0,1-.93,1.09l-.98,1.04c-.69.66-1.4,1.3-2.14,1.89a13.905,13.905,0,0,1-5,2.63,18.241,18.241,0,0,0,4.2-3.5,33.228,33.228,0,0,0,3.33-4.26,50.694,50.694,0,0,0,2.72-4.67l1.18-2.44c.38-.82.69-1.68,1.04-2.51l.53-1.25.45-1.29c.3-.86.59-1.72.91-2.57.56-1.74,1.06-3.49,1.6-5.25.43-1.78.96-3.55,1.41-5.34C136.46,101.29,136.89,99.49,137.42,97.69Z" fill="#0036ac"/><path d="M128.55,84.65c0,1.28-.08,2.55-.15,3.83-.12,1.27-.32,2.54-.51,3.81-.23,1.26-.55,2.51-.86,3.76l-.59,1.84a17.285,17.285,0,0,1-.67,1.82,25.874,25.874,0,0,1-3.87,6.74,17.156,17.156,0,0,1-2.77,2.75,9.542,9.542,0,0,1-3.42,1.8,12.6,12.6,0,0,0,2.88-2.4,22.051,22.051,0,0,0,2.28-2.92,35.032,35.032,0,0,0,3.38-6.59c.53-1.12.85-2.34,1.3-3.5l1.1-3.59.97-3.66C127.9,87.11,128.19,85.88,128.55,84.65Z" fill="#0036ac"/><path d="M131.37,193.81c-.33,1.18-.72,2.34-1.12,3.51-.44,1.14-.95,2.26-1.46,3.38-.54,1.11-1.18,2.17-1.79,3.24l-1.05,1.54-.53.76-.59.73a22.114,22.114,0,0,1-5.52,5.04,16.407,16.407,0,0,1-1.64.92,18.769,18.769,0,0,1-1.75.7,8.742,8.742,0,0,1-3.68.47,11.137,11.137,0,0,0,3.37-1.22,18.752,18.752,0,0,0,2.96-1.92,29.155,29.155,0,0,0,4.97-5.02c.8-.88,1.42-1.91,2.15-2.85l1.97-3.01,1.86-3.11C130.12,195.91,130.71,194.85,131.37,193.81Z" fill="#0036ac"/><path d="M140.84,127.28c-.04,2-.19,3.99-.33,6-.31,1.98-.6,3.97-1.02,5.94a49.905,49.905,0,0,1-4.11,11.41c-.23.45-.45.91-.7,1.35l-.8,1.3a25.052,25.052,0,0,1-1.68,2.56c-.64.8-1.21,1.64-1.9,2.4s-1.36,1.53-2.11,2.22a28.558,28.558,0,0,1-4.83,3.73,18.433,18.433,0,0,1-5.57,2.34,25.7,25.7,0,0,0,4.88-3.31,38.006,38.006,0,0,0,4.16-4.06,47.344,47.344,0,0,0,6.41-9.63c.43-.87.89-1.72,1.3-2.6.37-.9.73-1.8,1.12-2.7.19-.45.4-.89.57-1.35l.47-1.39c.31-.93.64-1.85.98-2.77l1.67-5.67C139.82,131.15,140.28,129.22,140.84,127.28Z" fill="#0036ac"/><path d="M142.47,158.43c-.1,1.84-.24,3.7-.5,5.54l-.6,2.73-.32,1.37c-.12.45-.3.89-.45,1.33-.31.89-.63,1.77-.97,2.65s-.83,1.7-1.23,2.55l-.65,1.26c-.23.42-.52.79-.77,1.19-.54.78-1.03,1.59-1.61,2.35a30.691,30.691,0,0,1-8.5,7.48,24.224,24.224,0,0,1-10.58,3.51,37.407,37.407,0,0,0,9.56-5.08c.71-.54,1.44-1.05,2.1-1.65a22.24,22.24,0,0,0,1.97-1.79c.61-.65,1.28-1.22,1.86-1.9l1.7-2.04c.55-.69,1.03-1.44,1.54-2.16.25-.37.53-.72.75-1.1l.65-1.16c.43-.78.93-1.52,1.31-2.33.36-.82.74-1.63,1.13-2.44.18-.41.41-.81.56-1.23l.46-1.27.96-2.55C141.4,161.96,141.85,160.19,142.47,158.43Z" fill="#0036ac"/><path d="M113.97,201.14a35.878,35.878,0,0,1-6.83-6.49,59.513,59.513,0,0,1-5.29-7.81,68.007,68.007,0,0,1-3.99-8.52,48.547,48.547,0,0,1-2.62-9.02c1.49,2.76,2.91,5.51,4.33,8.25,1.44,2.72,2.87,5.44,4.38,8.11,1.48,2.68,3.08,5.29,4.7,7.89C110.33,196.12,112.1,198.61,113.97,201.14Z" fill="#0036ac"/><path d="M118.26,173.97a42.338,42.338,0,0,1-10.61-8.4,70.619,70.619,0,0,1-8.04-10.96,87.283,87.283,0,0,1-5.9-12.2,71.507,71.507,0,0,1-3.85-12.94q2.67,6.2,5.57,12.19c.48,1,.99,1.99,1.49,2.98s.99,1.98,1.54,2.95,1.01,1.97,1.57,2.92l1.66,2.87c1.15,1.88,2.27,3.8,3.54,5.59,1.17,1.88,2.57,3.58,3.85,5.38A73.7,73.7,0,0,0,118.26,173.97Z" fill="#0036ac"/><path d="M119.55,142.77c-3.95-1.33-7.24-4.21-9.97-7.33a49,49,0,0,1-3.75-5c-1.14-1.74-2.16-3.55-3.14-5.37a84.314,84.314,0,0,1-4.85-11.39,72.556,72.556,0,0,1-3.08-11.95c1.6,3.79,3.19,7.55,4.82,11.27.84,1.85,1.64,3.72,2.54,5.53.86,1.83,1.74,3.65,2.7,5.43a83.411,83.411,0,0,0,6.23,10.32A32.525,32.525,0,0,0,119.55,142.77Z" fill="#0036ac"/><path d="M117.14,117.61a31.4,31.4,0,0,1-5.58-6.15,32.381,32.381,0,0,1-2.21-3.55c-.36-.6-.62-1.25-.93-1.87s-.6-1.26-.86-1.91a37.411,37.411,0,0,1-2.3-8.03,27.527,27.527,0,0,1-.27-8.3c.5,2.72,1.14,5.35,1.88,7.94a71.837,71.837,0,0,0,2.64,7.6,65.9,65.9,0,0,0,3.44,7.26C114.22,112.99,115.71,115.23,117.14,117.61Z" fill="#0036ac"/><path d="M110.52,227.8a29.447,29.447,0,0,1-4.84-5.87,41.065,41.065,0,0,1-3.47-6.8,49.29,49.29,0,0,1-2.26-7.27,36.718,36.718,0,0,1-.97-7.53,142.444,142.444,0,0,0,4.71,14.21c.88,2.32,1.96,4.55,3.06,6.77C107.87,223.54,109.18,225.64,110.52,227.8Z" fill="#0036ac"/><path d="M100.03,257.93s-.89-10.55-1.55-39.73c-1.43-63.24-39.02-112.49-62.3-84.03-22.96,28.07,11.24,65.98,34.84,102.69,10.41,16.2,12.68,27.25,12.68,27.25Z" fill="#0172d0"/><path d="M39.81,130.45c11.55,18.18,28.04,45.98,34.62,66.14,6.14,18.81,11.7,45.84,15.29,65.24l10.31-3.9s-.89-10.55-1.55-39.73C97.12,158.15,63.17,110.73,39.81,130.45Z" fill="#0172d0" opacity="0.54"/><path d="M39.81,130.45c3.35,4.88,6.53,9.86,9.7,14.86q4.665,7.545,9.07,15.26A225.867,225.867,0,0,1,74.02,192.6a290.048,290.048,0,0,1,9.26,34.33q1.86,8.685,3.49,17.4c1.03,5.83,2.07,11.65,2.94,17.5-1.28-5.77-2.5-11.56-3.83-17.32q-1.9-8.655-3.99-17.26c-1.42-5.73-2.83-11.46-4.41-17.14s-3.2-11.36-5.2-16.86-4.41-10.9-6.94-16.21c-2.52-5.33-5.25-10.55-8.01-15.77s-5.65-10.37-8.6-15.48C45.83,140.63,42.8,135.55,39.81,130.45Z" fill="#1c47c1"/><path d="M66.53,139.59c.56,1.36,1.04,2.75,1.53,4.15.41,1.41.77,2.85,1.12,4.29.26,1.46.53,2.92.7,4.39a41.374,41.374,0,0,1,.24,4.46,39.409,39.409,0,0,1-.26,4.47l-.38,2.22c-.14.73-.36,1.46-.55,2.18-.22.72-.47,1.43-.73,2.13-.32.68-.58,1.38-.96,2.03a12.494,12.494,0,0,1-2.68,3.55,17.062,17.062,0,0,0,1.84-3.92c.27-.66.42-1.37.64-2.05.15-.7.34-1.39.47-2.09a42.643,42.643,0,0,0,.73-8.52,77.831,77.831,0,0,0-.51-8.61c-.22-1.43-.38-2.87-.58-4.32C66.93,142.51,66.69,141.07,66.53,139.59Z" fill="#1c47c1"/><path d="M56.46,134.14c.38.93.71,1.89,1.05,2.84.28.97.53,1.95.77,2.94.18,1,.36,2,.48,3.01.09,1.01.18,2.03.17,3.05a26.168,26.168,0,0,1-.18,3.06l-.26,1.52c-.1.5-.24,1-.37,1.49-.15.49-.32.98-.5,1.46-.22.47-.4.95-.66,1.39a8.634,8.634,0,0,1-1.83,2.43,11.559,11.559,0,0,0,1.26-2.69,20.043,20.043,0,0,0,.76-2.83,29.288,29.288,0,0,0,.5-5.84,53.2,53.2,0,0,0-.35-5.9l-.4-2.96C56.74,136.13,56.57,135.15,56.46,134.14Z" fill="#1c47c1"/><path d="M90.41,208.05c.12.98.18,1.97.24,2.97.02.99-.01,1.99-.05,2.98-.08.99-.19,1.99-.34,2.98-.2.98-.36,1.97-.65,2.94a29.224,29.224,0,0,1-.98,2.86,20.8,20.8,0,0,1-1.42,2.68c-.27.43-.58.83-.88,1.24-.34.38-.65.78-1.02,1.13a7.941,7.941,0,0,1-2.45,1.74,10.561,10.561,0,0,0,1.97-2.15,18.158,18.158,0,0,0,1.5-2.46,26.859,26.859,0,0,0,2.04-5.38,51.2,51.2,0,0,0,1.23-5.68l.41-2.91C90.14,210.01,90.24,209.03,90.41,208.05Z" fill="#1c47c1"/><path d="M77.6,158.58c.57,1.48,1.08,2.99,1.57,4.51.35,1.55.79,3.1,1.02,4.69a39.75,39.75,0,0,1,.38,9.63,32.358,32.358,0,0,1-2.29,9.39,21.052,21.052,0,0,1-5.44,7.88,30.948,30.948,0,0,0,4.07-8.38,42.939,42.939,0,0,0,1.8-9.05l.17-2.31c.05-.77,0-1.55.02-2.32.08-1.55-.12-3.1-.16-4.66,0-.78-.17-1.55-.23-2.33l-.24-2.34C78.05,161.72,77.78,160.17,77.6,158.58Z" fill="#1c47c1"/><path d="M87.87,179.34a41.465,41.465,0,0,1,1.3,4.28,29.412,29.412,0,0,1-.28,13.47,26.58,26.58,0,0,1-3.79,8.23,22.483,22.483,0,0,1-6.33,6.34,37.1,37.1,0,0,0,5.09-7.1,38.472,38.472,0,0,0,1.86-3.89l.77-2.01.6-2.06a18.644,18.644,0,0,0,.49-2.09,16.78,16.78,0,0,0,.37-2.12l.28-2.14.09-2.16.05-1.09c.01-.36-.03-.72-.03-1.09l-.07-2.19C88.19,182.29,87.95,180.84,87.87,179.34Z" fill="#1c47c1"/><path d="M80.3,219.97a24.013,24.013,0,0,1-6.63-1.77,38.323,38.323,0,0,1-6.03-3.3,44.1,44.1,0,0,1-5.34-4.28,32.371,32.371,0,0,1-4.52-5.12c3.69,2.68,7.22,5.38,10.91,7.86,1.83,1.26,3.72,2.41,5.63,3.54C76.25,217.99,78.23,218.98,80.3,219.97Z" fill="#1c47c1"/><path d="M75.37,199.6a28.859,28.859,0,0,1-9.76-1.55,46.1,46.1,0,0,1-8.92-4.37,56.948,56.948,0,0,1-7.81-6.08,47.18,47.18,0,0,1-6.56-7.35q3.69,3.255,7.5,6.25c2.56,1.98,5.16,3.89,7.87,5.62a71.077,71.077,0,0,0,8.45,4.59A50.562,50.562,0,0,0,75.37,199.6Z" fill="#1c47c1"/><path d="M67.14,177.65a16.227,16.227,0,0,1-8.98-1.06,31.325,31.325,0,0,1-4.14-1.96c-1.32-.76-2.59-1.6-3.83-2.47a54.543,54.543,0,0,1-6.83-5.95,47.592,47.592,0,0,1-5.71-6.97c2.24,2.01,4.46,3.99,6.71,5.91s4.54,3.78,6.93,5.5a51.155,51.155,0,0,0,7.45,4.6A21.83,21.83,0,0,0,67.14,177.65Z" fill="#1c47c1"/><path d="M58.08,161.3a20.677,20.677,0,0,1-5.71-2.06,23.778,23.778,0,0,1-5.01-3.51,24.471,24.471,0,0,1-3.99-4.63,18.272,18.272,0,0,1-2.58-5.49,51.553,51.553,0,0,0,3.61,4.72,43.544,43.544,0,0,0,4.07,4.19,41.02,41.02,0,0,0,4.56,3.63C54.62,159.3,56.34,160.25,58.08,161.3Z" fill="#1c47c1"/><path d="M85.67,239.66a19.572,19.572,0,0,1-5.11-2.14,27.392,27.392,0,0,1-4.46-3.33,31.535,31.535,0,0,1-3.73-4.11,24.563,24.563,0,0,1-2.87-4.73,84.865,84.865,0,0,0,7.44,7.92,48.842,48.842,0,0,0,4.15,3.44A51.963,51.963,0,0,0,85.67,239.66Z" fill="#1c47c1"/><path d="M68.89,251.95l6.12,43.14a14.955,14.955,0,0,0,13.33,12.78l12.57,1.25a37.872,37.872,0,0,0,8.38-.09l12.03-1.45a14.96,14.96,0,0,0,13.09-13.33l4.64-45.44Z" fill="#154c9f"/><path d="M132.72,249.1l-15.24,41.25a16.021,16.021,0,0,1-17.14,10.33l-12.87-1.71a41.729,41.729,0,0,1-8.73-2.15l-3.65-1.34a14.926,14.926,0,0,0,13.26,12.38l12.57,1.25a37.872,37.872,0,0,0,8.38-.09l12.03-1.45a14.96,14.96,0,0,0,13.09-13.33l4.64-45.44Z" fill="#ff6000" opacity="0.22"/><path d="M137.82,262.67l1.24-13.86-13.11.59a147.922,147.922,0,0,1-27.83,1.24l-29.23,1.31,1.27,7.28C100.64,265.11,125,265.38,137.82,262.67Z" fill="#819bd2" opacity="0.51"/><path d="M68.68,243.34c11.66,3.41,38.87,8.98,73.34.42a4.533,4.533,0,0,1,5.61,4.37l.05,4.3a4.544,4.544,0,0,1-3.34,4.43c-9.66,2.67-39.18,9.05-77.94.75A4.785,4.785,0,0,1,62.62,253l-.06-5.04A4.774,4.774,0,0,1,68.68,243.34Z" fill="#004ba5"/><path d="M147.63,248.13a4.546,4.546,0,0,0-4.6-4.5,4.5,4.5,0,0,1,.51,2.04l.05,4.3a4.544,4.544,0,0,1-3.34,4.43c-9.58,2.64-38.69,8.93-76.97.95a4.762,4.762,0,0,0,3.12,2.26c38.75,8.29,68.28,1.91,77.94-.75a4.541,4.541,0,0,0,3.34-4.43Z" fill="#ff6000" opacity="0.22"/><path d="M234.42,135.62h7.37s4.93,19.68,13.54,26.44-10.45,11.27-10.45,11.27l-8.61,1.23s-4.3-14.35-7.58-18.24S234.42,135.62,234.42,135.62Z" fill="#f9bbc1"/><path d="M234.42,135.62h7.37s4.93,19.68,13.54,26.44-10.45,11.27-10.45,11.27l-8.61,1.23s-4.3-14.35-7.58-18.24S234.42,135.62,234.42,135.62Z" fill="#f9bbc1" opacity="0.38"/><ellipse cx="24.69" cy="19.33" rx="24.69" ry="19.33" transform="matrix(0.119, -0.993, 0.993, 0.119, 200.48, 163.097)" fill="#f9bbc1"/><path d="M225.55,116.37a29.155,29.155,0,0,0-9.05.64c8.28,2.79,14.39,12.42,14.39,23.87,0,11.94-4.17,21.9-12.99,24.19a14.9,14.9,0,0,0,1.77.32c10.6,1.27,20.51-8.67,22.13-22.21S236.15,117.65,225.55,116.37Z" fill="#f9bbc1" opacity="0.38"/><path d="M252.51,248.78l-80.11,7.8-35.68-68.52,79.72-5.37Z" fill="#2e78ec"/><path d="M255.88,248.49l-80.11,7.8-35.68-68.53,79.72-5.37Z" fill="#9ac6fc"/><path d="M144.01,189.96l74.39-5.01,33.54,61.45-74.76,7.28Z" fill="#eaf7ff" opacity="0.71"/><rect width="100.8" height="8.89" transform="translate(173.13 252.18)" fill="#2440e4"/><path d="M207.54,195.67l-51.64,3.85-2.46-4.18,51.64-3.84Z" fill="#9ac6fc"/><path d="M223.53,203.13l-63.13,4.5-2.46-4.18,63.13-4.49Z" fill="#9ac6fc"/><path d="M208.35,212.06l-43.44,3.68-2.46-4.17,43.44-3.68Z" fill="#9ac6fc"/><path d="M232.54,219.35l-63.13,4.5-2.46-4.17,63.13-4.5Z" fill="#9ac6fc"/><path d="M237.04,227.47l-63.12,4.49-2.46-4.17,63.12-4.5Z" fill="#9ac6fc"/><path d="M241.54,235.58l-63.12,4.49-2.46-4.17,63.12-4.5Z" fill="#9ac6fc"/><path d="M254.65,184.31a21.953,21.953,0,0,0-1.32-8.58c-1.31-3.48-3.8-7.24-8.46-7.3-5.33-.07-10.29,1.16-11.23,4.25-2.3,7.64-3.51,9.77-9.27,22.81a165.568,165.568,0,0,1-26.65,41l22.55,8.2C220.27,244.67,252.95,228.93,254.65,184.31Z" fill="#0f2547"/><path d="M118.87,278.35s-14.73,15.08-25.39,18.42S56.61,307.89,65.94,312.3s25.88,1.08,43.37-.73c11.21-1.16,5.74-8.54,13.12-18.38C123.53,291.72,118.87,278.35,118.87,278.35Z" fill="#f9bbc1"/><rect width="98.94" height="49.29" transform="translate(148.39 261.07)" fill="#090083"/><path d="M193.79,217.38a8.228,8.228,0,0,0-7.78,1.85c-6.5,5.93-18.91,18.96-9.44,24.63,37.15,22.26,47.68,34.49,70.2,34.49,37.05-.01,53.32-12.24,55.79-30.58Z" fill="#ffbf5d"/><path d="M197.72,248.77s-9.53-2.91-14.35,9.43c-6.56,16.81-14.88,19.09-35.67,28.7-21.65,10.01-28.29,13.94-28.29,13.94l-15.58-10.66s69.02-76.11,85.68-73.24C214.02,221.15,197.72,248.77,197.72,248.77Z" fill="#ffbf5d"/><path d="M285.06,242.88c-6,8.39-17.36,14.97-37.73,18.19-18.39,2.91-35.05-5.46-61.9-17.24-4.32-1.89-6.13.52-7.18,5.12-.01.04,2.26,15.46-34.06,34.02-17.29,8.84-23.08,16.06-25.1,17.65l.33.23s6.64-3.93,28.29-13.94c20.79-9.61,29.11-11.89,35.67-28.7a17.094,17.094,0,0,1,4.84-7.17c28.03,17.7,38.59,27.32,58.55,27.32,37.05-.01,53.32-12.24,55.79-30.58Z" fill="#da1c5c" opacity="0.11"/><path d="M250.2,155.1a31.285,31.285,0,0,1-16.62,13.78s-1.42,10.61,2.27,26.19,6.09,35.67,6.09,35.67,9.08,23.37,41.06,21.32,24.6-15.17,24.6-15.17-12.54-40.48-25.01-56.99C268.65,161.45,255.94,151.61,250.2,155.1Z" fill="#0f2547"/><path d="M232.74,131.28a8.536,8.536,0,0,0-4.98-.01c-5.51,1.74-18.61,5.17-29.01,2.32-13.53-3.71-14.96-8.73-14.96-8.73s5.53,2.56,9.43,2.56c0,0-7.99-4.3-9.43-9.02,0,0,6.56,3.85,13.94,3.15,0,0-5.94-.28-7.17-3.15a38.768,38.768,0,0,0,17.42-1.23s-10.66-.2-12.09-2.25c0,0,11.68.41,18.86-2.46s22.83-3.69,28.02,6.56C247.46,128.31,240.3,133.45,232.74,131.28Z" fill="#03004d"/><path d="M248.93,278.7c36.98-2.04,52.55-15.14,54.02-33.57,8.35-5.02,4.44-11.17,4.44-11.17a231.755,231.755,0,0,0-13.4-31.1c-14.27,2.89-20.07,15.99-23.47,26.92-3.69,11.85-1.47,26.84-44.31,22.4-10.35-1.07-19.88,1.5-24.89,9.48C221.6,273.35,232.1,279.63,248.93,278.7Z" fill="#03060c" opacity="0.22"/><path d="M229.7,122.5l-8.16,6.11s14.45,0,15.13,9.46c.44,6.19,3.69,14.14,15.17,14.55,0,0-3.79-3.69-4.2-5.02,0,0,3.59,2.36,7.07,1.43,0,0-6.25-3.59-7.58-7.07,0,0,2.36,2.46,5.12,2.46,0,0-6.15-5.12-6.46-7.28a4.725,4.725,0,0,0,4.51.41,6.845,6.845,0,0,1-3.69-3.13c-1.43-2.51-1.11-8.79-3.17-13.85s-8.52-4.03-8.52-4.03Z" fill="#03004d"/><path d="M271.93,235.66s7.42-37.73,36.49-28.29c34.78,11.29,59.34,87.8,9.02,99.21-25.83,5.86-95.52,4.82-116,3.94a25.594,25.594,0,0,1-13.58-4.55c-4.33-3.02-8.78-7.68-8.99-14.15-.41-12.71,8.2-30.34,46.33-29.52S271.93,235.66,271.93,235.66Z" fill="#2440e4"/><path d="M329.72,223.56a14.474,14.474,0,0,0-8.37-5.28.433.433,0,0,1-.05-.01c-29.94-6.13-33.1,32.19-33.1,32.19s-5.49,28.26-43.47,31.7c-32.15,2.92-41.8,16.6-42.9,28.37,20.96.88,89.94,1.87,115.61-3.95C356.36,297.75,350.48,249.98,329.72,223.56Z" fill="#2440e4" opacity="0.33"/><path d="M254.71,190.52a14.78,14.78,0,0,0-.34-1.89c-1.4,16.33-7.02,28.51-13.31,37.26a47.214,47.214,0,0,0,1.5,6.23,53.107,53.107,0,0,0,4.33,6.35S257.56,214.33,254.71,190.52Z" fill="#173360" opacity="0.57"/><path d="M247.13,141.98s2.36,2.46,5.12,2.46c0,0-6.15-5.12-6.46-7.28a4.725,4.725,0,0,0,4.51.41,6.845,6.845,0,0,1-3.69-3.13c-1.39-2.42-1.14-8.36-2.97-13.32a16.552,16.552,0,0,0-.88-2.1c-2.84-5.61-8.81-7.9-14.81-8.36.09.27.49.57,1.32.91,6.5,2.61,9.29,15.88,6.61,23.49a8.1,8.1,0,0,1,.8,3.02c.44,6.19,3.69,14.14,15.17,14.55,0,0-3.79-3.69-4.2-5.02,0,0,3.59,2.36,7.07,1.43C254.71,149.05,248.46,145.46,247.13,141.98Z" fill="#03004d" opacity="0.39"/><path d="M231.34,133.59s.96-5.9,3.83-4.8,4,4.65,2.96,8.61-5.69,1.78-5.69,1.78" fill="#f9bbc1"/><path d="M231.34,133.59s.96-5.9,3.83-4.8,4,4.65,2.96,8.61-5.69,1.78-5.69,1.78" fill="#f9bbc1" opacity="0.38"/><path d="M98.21,294.56c-22.8,6.28-40.71,13.75-32.27,17.73,9.33,4.41,25.88,1.08,43.37-.73,8-.83,7.5-4.83,9.25-10.63C115,301.27,106.85,300.84,98.21,294.56Z" fill="#03004d"/><circle cx="27.55" cy="27.55" r="27.55" transform="translate(162.873 95.421) rotate(-80.701)" fill="#ff7300"/><circle cx="27.55" cy="27.55" r="27.55" transform="translate(165.64 44.32)" fill="#ffb300"/><circle cx="23.29" cy="23.29" r="23.29" transform="translate(169.9 48.58)" fill="#ffb300" opacity="0.42"/><path d="M193.19,50.22a21.65,21.65,0,1,1-21.65,21.65,21.672,21.672,0,0,1,21.65-21.65m0-1.64a23.29,23.29,0,1,0,23.29,23.29,23.293,23.293,0,0,0-23.29-23.29Z" fill="#ffb300"/><g opacity="0.25"><text transform="translate(184.684 82.201)" fill="#f95706" font-size="31.16" font-family="Montserrat-Regular, Montserrat"><tspan x="0" y="0">$</tspan></text></g><text transform="translate(183.865 81.381)" fill="#ffcb00" font-size="31.16" font-family="Montserrat-Regular, Montserrat"><tspan x="0" y="0">$</tspan></text><circle cx="18.25" cy="18.25" r="18.25" transform="translate(102.74 26.22)" fill="#ff7300"/><circle cx="18.25" cy="18.25" r="18.25" transform="translate(101.87 25.68)" fill="#ffb300"/><circle cx="15.43" cy="15.43" r="15.43" transform="translate(99.931 35.66) rotate(-22.724)" fill="#ffb300" opacity="0.42"/><path d="M120.12,29.59a14.34,14.34,0,1,1-14.34,14.34,14.353,14.353,0,0,1,14.34-14.34m0-1.09a15.43,15.43,0,1,0,15.43,15.43A15.432,15.432,0,0,0,120.12,28.5Z" fill="#ffb300"/><g opacity="0.25"><text transform="translate(114.48 50.769)" fill="#f95706" font-size="20.64" font-family="Montserrat-Regular, Montserrat"><tspan x="0" y="0">$</tspan></text></g><text transform="translate(113.937 50.226)" fill="#ffcb00" font-size="20.64" font-family="Montserrat-Regular, Montserrat"><tspan x="0" y="0">$</tspan></text><circle cx="14.94" cy="14.94" r="14.94" transform="translate(156.959 6.308) rotate(-19.578)" fill="#ff7300"/><circle cx="14.94" cy="14.94" r="14.94" transform="translate(160.39 0)" fill="#ffb300"/><circle cx="12.63" cy="12.63" r="12.63" transform="translate(162.7 2.31)" fill="#ffb300" opacity="0.42"/><path d="M175.33,3.2a11.74,11.74,0,1,1-11.74,11.74A11.751,11.751,0,0,1,175.33,3.2m0-.89a12.63,12.63,0,1,0,12.63,12.63A12.63,12.63,0,0,0,175.33,2.31Z" fill="#ffb300"/><g opacity="0.25"><text transform="translate(170.716 20.535)" fill="#f95706" font-size="16.89" font-family="Montserrat-Regular, Montserrat"><tspan x="0" y="0">$</tspan></text></g><text transform="translate(170.272 20.091)" fill="#ffcb00" font-size="16.89" font-family="Montserrat-Regular, Montserrat"><tspan x="0" y="0">$</tspan></text><circle cx="32.97" cy="32.97" r="32.97" transform="translate(86.283 131.348) rotate(-45)" fill="#ff7300"/><circle cx="32.97" cy="32.97" r="32.97" transform="matrix(0.227, -0.974, 0.974, 0.227, 91.765, 155.014)" fill="#ffb300"/><circle cx="27.87" cy="27.87" r="27.87" transform="translate(103.47 102.5)" fill="#ffb300" opacity="0.42"/><path d="M131.34,104.46a25.91,25.91,0,1,1-25.91,25.91,25.942,25.942,0,0,1,25.91-25.91m0-1.96a27.87,27.87,0,1,0,27.87,27.87,27.873,27.873,0,0,0-27.87-27.87Z" fill="#ffb300"/><g opacity="0.25"><text transform="translate(121.152 142.725)" fill="#f95706" font-size="37.29" font-family="Montserrat-Regular, Montserrat"><tspan x="0" y="0">$</tspan></text></g><text transform="translate(120.171 141.744)" fill="#ffcb00" font-size="37.29" font-family="Montserrat-Regular, Montserrat"><tspan x="0" y="0">$</tspan></text></g></g></g></svg>