<svg xmlns="http://www.w3.org/2000/svg" width="90" height="90" viewBox="0 0 90 90"><g transform="translate(-15.764 -15.764)"><path d="M0,0H3V16.413H0Z" transform="translate(73.945 76.079) rotate(-45)" fill="#6b9777"/><path d="M0,0H16.029V3H0Z" transform="translate(73.836 45.567) rotate(-45)" fill="#6b9777"/><circle cx="11.988" cy="11.988" r="11.988" transform="translate(80.245 17.307)" fill="#ffbf5d"/><circle cx="11.988" cy="11.988" r="11.988" transform="translate(80.245 80.245)" fill="#ffbf5d"/><path d="M0,0H16.413V3H0Z" transform="translate(33.835 85.559) rotate(-45)" fill="#6b9777"/><path d="M0,0H3V16.029H0Z" transform="translate(34.224 36.349) rotate(-45)" fill="#6b9777"/><circle cx="23.976" cy="23.976" r="23.976" transform="translate(36.787 36.788)" fill="#fff"/><circle cx="11.988" cy="11.988" r="11.988" transform="translate(17.307 17.307)" fill="#ffbf5d"/><path d="M70.231,52.132l-2.749-.687a.644.644,0,0,1-.131-1.2,2.566,2.566,0,0,1,2.285,0l1.184.592a1.5,1.5,0,1,0,1.34-2.681l-1.184-.592a5.485,5.485,0,0,0-.985-.377V45h-3v2.186a5.484,5.484,0,0,0-.984.377,3.641,3.641,0,0,0,.745,6.789l2.749.688a.644.644,0,0,1,.131,1.2,2.568,2.568,0,0,1-2.285,0l-1.184-.592a1.5,1.5,0,1,0-1.34,2.681l1.184.592a5.484,5.484,0,0,0,.985.376v2.186h3V59.3a5.484,5.484,0,0,0,.984-.377,3.641,3.641,0,0,0-.745-6.789Z" transform="translate(-39.198 -23.76)" fill="#da922a"/><circle cx="11.988" cy="11.988" r="11.988" transform="translate(17.307 80.245)" fill="#ffbf5d"/><g transform="translate(24.799 21.24)"><path d="M70.231,388.132l-2.749-.687a.644.644,0,0,1-.131-1.2,2.566,2.566,0,0,1,2.285,0l1.184.592a1.5,1.5,0,1,0,1.34-2.681l-1.184-.592a5.48,5.48,0,0,0-.985-.377V381h-3v2.186a5.478,5.478,0,0,0-.984.377,3.641,3.641,0,0,0,.745,6.789l2.749.688a.644.644,0,0,1,.131,1.2,2.568,2.568,0,0,1-2.285,0l-1.184-.592a1.5,1.5,0,1,0-1.34,2.681l1.184.592a5.488,5.488,0,0,0,.985.376v2.186h3V395.3a5.487,5.487,0,0,0,.984-.377,3.641,3.641,0,0,0-.745-6.789Z" transform="translate(-63.997 -318.062)" fill="#da922a"/><path d="M402.756,54.352l2.749.688a.644.644,0,0,1,.131,1.2,2.568,2.568,0,0,1-2.285,0l-1.184-.592a1.5,1.5,0,1,0-1.34,2.681l1.184.592a5.482,5.482,0,0,0,.984.376v2.186h3V59.3a5.483,5.483,0,0,0,.984-.377,3.641,3.641,0,0,0-.745-6.789l-2.749-.687a.644.644,0,0,1-.131-1.2,2.566,2.566,0,0,1,2.285,0l1.184.592a1.5,1.5,0,1,0,1.34-2.681l-1.184-.592a5.481,5.481,0,0,0-.985-.377V45h-3v2.186a5.484,5.484,0,0,0-.984.377,3.641,3.641,0,0,0,.745,6.789Z" transform="translate(-337.059 -45)" fill="#da922a"/><path d="M406.231,388.132l-2.749-.687a.644.644,0,0,1-.131-1.2,2.566,2.566,0,0,1,2.285,0l1.184.592a1.5,1.5,0,0,0,1.34-2.681l-1.184-.592a5.479,5.479,0,0,0-.985-.377V381h-3v2.186a5.478,5.478,0,0,0-.984.377,3.641,3.641,0,0,0,.745,6.789l2.749.688a.644.644,0,0,1,.131,1.2,2.568,2.568,0,0,1-2.285,0l-1.184-.592a1.5,1.5,0,1,0-1.34,2.681l1.184.592a5.486,5.486,0,0,0,.984.376v2.186h3V395.3a5.486,5.486,0,0,0,.984-.377,3.641,3.641,0,0,0-.745-6.789Z" transform="translate(-337.059 -318.062)" fill="#da922a"/></g><path d="M207.154,221.82l-13.487-8.991a1.5,1.5,0,0,1,0-2.494l13.487-8.991,1.662,2.494L197.2,211.582l11.616,7.744Z" transform="translate(-144.037 -150.818)" fill="#c0f5f9"/><circle cx="4.683" cy="4.683" r="4.683" transform="translate(62.262 45.404)" fill="#e2e2e2"/><circle cx="4.683" cy="4.683" r="4.683" transform="translate(62.262 66.758)" fill="#e2e2e2"/><circle cx="4.683" cy="4.683" r="4.683" transform="translate(45.779 56.081)" fill="#e2e2e2"/><path d="M70.231,52.132l-2.749-.687a.644.644,0,0,1-.131-1.2,2.566,2.566,0,0,1,2.285,0l1.184.592a1.5,1.5,0,1,0,1.34-2.681l-1.184-.592a5.485,5.485,0,0,0-.985-.377V45h-3v2.186a5.484,5.484,0,0,0-.984.377,3.641,3.641,0,0,0,.745,6.789l2.749.688a.644.644,0,0,1,.131,1.2,2.568,2.568,0,0,1-2.285,0l-1.184-.592a1.5,1.5,0,1,0-1.34,2.681l1.184.592a5.484,5.484,0,0,0,.985.376v2.186h3V59.3a5.484,5.484,0,0,0,.984-.377,3.641,3.641,0,0,0-.745-6.789Z" transform="translate(-39.198 -23.76)" fill="#fe8c00"/><path d="M92.233,78.746A13.418,13.418,0,0,0,83.821,81.7l-4.015-4.016-.158.158A25.425,25.425,0,0,0,79.8,43.851l4.025-4.025A13.509,13.509,0,1,0,81.7,37.706l-4.025,4.025a25.422,25.422,0,0,0-33.827,0l-4.025-4.025a13.509,13.509,0,1,0-2.119,2.119l4.025,4.025a25.422,25.422,0,0,0,0,33.827L37.706,81.7a13.509,13.509,0,1,0,2.119,2.119L43.851,79.8a25.425,25.425,0,0,0,33.994-.149l-.158.158L81.7,83.821a13.479,13.479,0,1,0,10.531-5.075Zm0-59.941a10.49,10.49,0,1,1-10.49,10.49A10.49,10.49,0,0,1,92.233,18.805ZM29.295,39.785a10.49,10.49,0,1,1,10.49-10.49A10.49,10.49,0,0,1,29.295,39.785Zm0,62.938a10.49,10.49,0,1,1,10.49-10.49,10.49,10.49,0,0,1-10.49,10.49ZM60.764,83.242A22.478,22.478,0,1,1,83.242,60.764,22.478,22.478,0,0,1,60.764,83.242Zm31.469,19.481a10.49,10.49,0,1,1,10.49-10.49,10.49,10.49,0,0,1-10.49,10.49Z" transform="translate(0 0)" fill="#0f2547"/><path d="M70.231,388.132l-2.749-.687a.644.644,0,0,1-.131-1.2,2.566,2.566,0,0,1,2.285,0l1.184.592a1.5,1.5,0,1,0,1.34-2.681l-1.184-.592a5.48,5.48,0,0,0-.985-.377V381h-3v2.186a5.478,5.478,0,0,0-.984.377,3.641,3.641,0,0,0,.745,6.789l2.749.688a.644.644,0,0,1,.131,1.2,2.568,2.568,0,0,1-2.285,0l-1.184-.592a1.5,1.5,0,1,0-1.34,2.681l1.184.592a5.488,5.488,0,0,0,.985.376v2.186h3V395.3a5.487,5.487,0,0,0,.984-.377,3.641,3.641,0,0,0-.745-6.789Z" transform="translate(-39.198 -296.822)" fill="#fe8c00"/><path d="M402.756,54.352l2.749.688a.644.644,0,0,1,.131,1.2,2.568,2.568,0,0,1-2.285,0l-1.184-.592a1.5,1.5,0,1,0-1.34,2.681l1.184.592a5.482,5.482,0,0,0,.984.376v2.186h3V59.3a5.483,5.483,0,0,0,.984-.377,3.641,3.641,0,0,0-.745-6.789l-2.749-.687a.644.644,0,0,1-.131-1.2,2.566,2.566,0,0,1,2.285,0l1.184.592a1.5,1.5,0,1,0,1.34-2.681l-1.184-.592a5.481,5.481,0,0,0-.985-.377V45h-3v2.186a5.484,5.484,0,0,0-.984.377,3.641,3.641,0,0,0,.745,6.789Z" transform="translate(-312.26 -23.76)" fill="#fe8c00"/><path d="M406.231,388.132l-2.749-.687a.644.644,0,0,1-.131-1.2,2.566,2.566,0,0,1,2.285,0l1.184.592a1.5,1.5,0,0,0,1.34-2.681l-1.184-.592a5.479,5.479,0,0,0-.985-.377V381h-3v2.186a5.478,5.478,0,0,0-.984.377,3.641,3.641,0,0,0,.745,6.789l2.749.688a.644.644,0,0,1,.131,1.2,2.568,2.568,0,0,1-2.285,0l-1.184-.592a1.5,1.5,0,1,0-1.34,2.681l1.184.592a5.486,5.486,0,0,0,.984.376v2.186h3V395.3a5.486,5.486,0,0,0,.984-.377,3.641,3.641,0,0,0-.745-6.789Z" transform="translate(-312.26 -296.822)" fill="#fe8c00"/><path d="M190.647,178.376a6.18,6.18,0,1,0-5.907-4.358l-6.421,4.281a6.181,6.181,0,1,0,0,9.144l6.421,4.281a6.2,6.2,0,1,0,1.557-2.564l-6.314-4.21a6.173,6.173,0,0,0,0-4.16l6.314-4.209A6.162,6.162,0,0,0,190.647,178.376Zm0-9.366a3.184,3.184,0,1,1-3.184,3.184A3.184,3.184,0,0,1,190.647,169.01Zm-16.484,17.046a3.184,3.184,0,1,1,3.184-3.184A3.184,3.184,0,0,1,174.163,186.056Zm16.484,4.308a3.184,3.184,0,1,1-3.184,3.184A3.184,3.184,0,0,1,190.647,190.364Z" transform="translate(-123.702 -122.107)" fill="#0f2547"/></g></svg>