<svg xmlns="http://www.w3.org/2000/svg" width="90" height="90" viewBox="0 0 90 90"><g transform="translate(0 0)"><circle cx="13" cy="13" r="13" transform="translate(31.756 31.755)" fill="#ffbf5d"/><circle cx="5" cy="5" r="5" transform="translate(68.477 8)" fill="#ffbf5d"/><circle cx="5" cy="5" r="5" transform="translate(12 71.477)" fill="#ffbf5d"/><path d="M16.624,69.366a8.036,8.036,0,0,0-3.724.9,40.088,40.088,0,0,1-9.208-25.42C3.692,22.05,23.236,3.5,47.261,3.5a46.18,46.18,0,0,1,8.677.82,1.846,1.846,0,0,0,2.175-1.37A1.758,1.758,0,0,0,56.669.888,50.088,50.088,0,0,0,47.261,0,48.263,48.263,0,0,0,13.842,13.135,43.165,43.165,0,0,0,10.17,72.643a7.044,7.044,0,0,0-1.3,4.081,7.124,7.124,0,0,0,2.272,5.2,8.05,8.05,0,0,0,10.965,0,7.1,7.1,0,0,0,0-10.405,7.918,7.918,0,0,0-5.483-2.155ZM19.5,79.449a4.216,4.216,0,0,1-5.743,0,3.716,3.716,0,0,1,0-5.451A4.218,4.218,0,0,1,19.5,74a3.716,3.716,0,0,1,0,5.451Zm0,0" transform="translate(0 0)" fill="#0f2547"/><path d="M245.376,43.488a7.091,7.091,0,0,0-.97-9.282,8.052,8.052,0,0,0-10.966,0,7.1,7.1,0,0,0,0,10.406,7.918,7.918,0,0,0,5.483,2.155,8.036,8.036,0,0,0,3.724-.9,40.09,40.09,0,0,1,9.208,25.42c0,22.8-19.545,41.345-43.569,41.345a46.171,46.171,0,0,1-8.594-.8,1.846,1.846,0,0,0-2.173,1.374,1.758,1.758,0,0,0,1.448,2.062,50.124,50.124,0,0,0,9.319.872A48.263,48.263,0,0,0,241.705,103a43.165,43.165,0,0,0,3.671-59.51Zm-9.324-1.354a3.716,3.716,0,0,1,0-5.451,4.217,4.217,0,0,1,5.744,0,3.722,3.722,0,0,1,0,5.451,4.219,4.219,0,0,1-5.744,0Zm0,0" transform="translate(-165.548 -26.134)" fill="#0f2547"/><path d="M98.22,134.955a1.722,1.722,0,0,0,1.722,1.722h10.767a1.722,1.722,0,0,0,1.722-1.722v-3.338a26.964,26.964,0,0,0,6.463-2.678l2.357,2.357a1.721,1.721,0,0,0,2.436,0l7.61-7.615a1.722,1.722,0,0,0,0-2.435l-2.354-2.354a26.965,26.965,0,0,0,2.678-6.462h3.325a1.722,1.722,0,0,0,1.722-1.722V99.939a1.722,1.722,0,0,0-1.722-1.722h-3.326a26.969,26.969,0,0,0-2.678-6.462l2.341-2.341a1.722,1.722,0,0,0,0-2.436l-7.616-7.61a1.722,1.722,0,0,0-2.435,0l-2.338,2.339a26.964,26.964,0,0,0-6.463-2.678V75.722A1.722,1.722,0,0,0,110.708,74H99.942a1.722,1.722,0,0,0-1.722,1.722V79.03a26.941,26.941,0,0,0-6.462,2.678l-2.339-2.339a1.723,1.723,0,0,0-2.435,0l-7.615,7.611a1.721,1.721,0,0,0,0,2.436l2.341,2.341a26.96,26.96,0,0,0-2.678,6.462H75.712a1.722,1.722,0,0,0-1.722,1.721l-.006,10.767a1.721,1.721,0,0,0,1.722,1.723h3.325a26.964,26.964,0,0,0,2.678,6.462l-2.354,2.354a1.722,1.722,0,0,0,0,2.435l7.61,7.615a1.723,1.723,0,0,0,1.217.505h0a1.722,1.722,0,0,0,1.217-.5l2.356-2.357a26.986,26.986,0,0,0,6.463,2.678Zm-5.787-9.638a1.722,1.722,0,0,0-2.152.229l-2.1,2.1-5.176-5.18,2.095-2.1a1.721,1.721,0,0,0,.229-2.152,23.568,23.568,0,0,1-3.262-7.872,1.722,1.722,0,0,0-1.684-1.36H77.429l0-7.323h2.953a1.722,1.722,0,0,0,1.684-1.36,23.571,23.571,0,0,1,3.262-7.871,1.721,1.721,0,0,0-.229-2.152L83.021,88.2l5.18-5.176L90.28,85.1a1.723,1.723,0,0,0,2.152.229,23.559,23.559,0,0,1,7.871-3.262,1.723,1.723,0,0,0,1.36-1.684V77.444h7.323v2.94a1.721,1.721,0,0,0,1.36,1.684,23.579,23.579,0,0,1,7.871,3.262,1.72,1.72,0,0,0,2.152-.229l2.08-2.079,5.18,5.176-2.081,2.081a1.722,1.722,0,0,0-.229,2.152,23.585,23.585,0,0,1,3.262,7.871,1.721,1.721,0,0,0,1.684,1.36h2.959v7.323h-2.959a1.722,1.722,0,0,0-1.684,1.36,23.565,23.565,0,0,1-3.262,7.871,1.722,1.722,0,0,0,.229,2.152l2.095,2.095-5.176,5.18-2.1-2.1a1.722,1.722,0,0,0-2.152-.229,23.585,23.585,0,0,1-7.871,3.262,1.722,1.722,0,0,0-1.36,1.684v2.971h-7.323v-2.971a1.723,1.723,0,0,0-1.36-1.684A23.57,23.57,0,0,1,92.433,125.317Zm0,0" transform="translate(-60.326 -60.339)" fill="#0f2547"/><path d="M203.88,188.626a15.254,15.254,0,1,0-15.254,15.254A15.272,15.272,0,0,0,203.88,188.626Zm-26.817,0a11.562,11.562,0,1,1,11.562,11.562A11.575,11.575,0,0,1,177.063,188.626Zm0,0" transform="translate(-143.626 -143.626)" fill="#0f2547"/><path d="M339.924,21.5a1.848,1.848,0,1,0-1.3-.541A1.86,1.86,0,0,0,339.924,21.5Zm0,0" transform="translate(-278.772 -14.521)" fill="#0f2547"/><path d="M156.205,474.359a1.847,1.847,0,1,0,1.305.541A1.861,1.861,0,0,0,156.205,474.359Zm0,0" transform="translate(-127.281 -391.309)" fill="#0f2547"/></g></svg>