
<svg xmlns="http://www.w3.org/2000/svg" width="35.647" height="49.58" viewBox="0 0 35.647 49.58"><path d="M179.686,129.579a7.85,7.85,0,0,0,3.891-8.114c-.665-5.021-6.65-6.917-11.373-7.316V106.6h-4.655v7.482h-3.126V106.6h-4.655v7.482H150.39V118.9h3.492c1.563,0,2.328.466,2.328,1.729V141.35c0,1.729-.865,2.261-1.8,2.261h-3.558v4.921H159.9v7.648h4.689v-7.648h3.126v7.648h4.556v-7.648h1c9.577,0,12.769-4.689,12.769-11.073A8.28,8.28,0,0,0,179.686,129.579ZM164.423,119.2h3.325c2.328,0,6.917.4,6.917,4.19a4.69,4.69,0,0,1-4.09,4.955h-6.152Zm5.154,23.942v-.033h-5.154v-9.976h5.986c1.4,0,6.65.466,6.65,4.19S174.565,143.146,169.577,143.146Z" transform="translate(-150.39 -106.601)" fill="#004ba5"/></svg>