
<svg xmlns="http://www.w3.org/2000/svg" width="50" height="50" viewBox="0 0 50 50"><g transform="translate(0 -2)"><g transform="translate(0 0)"><path d="M25.019,0A25,25,0,1,0,50,25,25,25,0,0,0,25.019,0Zm-.039,45.84a20.84,20.84,0,0,1,0-41.68,21.126,21.126,0,0,1,8.585,1.852A20.839,20.839,0,0,1,24.981,45.84Z" transform="translate(0 2)" fill="#004ba5"/></g><g transform="translate(15.206 13)"><path d="M166.586,119.3a4.34,4.34,0,0,0,2.151-4.486c-.368-2.776-3.677-3.824-6.287-4.044V106.6h-2.574v4.136h-1.728V106.6h-2.574v4.136H150.39V113.4h1.93c.864,0,1.287.257,1.287.956v11.453c0,.956-.478,1.25-.993,1.25h-1.967v2.721h5v4.228h2.592v-4.228h1.728v4.228h2.519v-4.228h.551c5.294,0,7.059-2.592,7.059-6.122A4.577,4.577,0,0,0,166.586,119.3Zm-8.438-5.736h1.838c1.287,0,3.824.221,3.824,2.316a2.593,2.593,0,0,1-2.261,2.739h-3.4ZM161,126.8v-.018h-2.849v-5.515h3.309c.772,0,3.677.257,3.677,2.316S163.755,126.8,161,126.8Z" transform="translate(-150.39 -106.601)" fill="#004ba5"/></g></g></svg>