<svg id="coins-money-stack" xmlns="http://www.w3.org/2000/svg" width="100" height="100" viewBox="0 0 100 100">
  <path id="Path_662" data-name="Path 662" d="M86.456,29.327v.006A10.1,10.1,0,0,0,87.5,25V18.75C87.5,8.4,70.709,0,50,0S12.5,8.4,12.5,18.75a9.643,9.643,0,0,1,.153-1.514C4.907,20.667,0,25.671,0,31.25V37.5c0,5.8,5.273,10.98,13.544,14.416h0A10.1,10.1,0,0,0,12.5,56.25V62.5a10.75,10.75,0,0,0,2.185,6.25A10.75,10.75,0,0,0,12.5,75v6.25C12.5,91.6,29.291,100,50,100s37.5-8.4,37.5-18.75V75a10.838,10.838,0,0,0-2.252-6.348c-.012.012-.024.03-.037.043a11.459,11.459,0,0,0,2.136-4.681C95.093,60.577,100,55.579,100,50V43.75C100,37.952,94.727,32.764,86.456,29.327ZM50,3.125c20.258,0,34.375,8.234,34.375,15.625S70.258,34.375,50,34.375,15.625,26.135,15.625,18.75,29.742,3.125,50,3.125ZM3.125,31.25c0-3.65,3.461-7.489,9.375-10.455V25c0,10.352,16.791,18.75,37.5,18.75a73.26,73.26,0,0,0,8.96-.562A60.182,60.182,0,0,1,37.5,46.875C17.242,46.875,3.125,38.635,3.125,31.25ZM84.375,75c0,7.385-14.117,15.625-34.375,15.625S15.625,82.385,15.625,75a7.444,7.444,0,0,1,1.263-3.7.134.134,0,0,1-.024-.03C23.157,77.2,35.632,81.25,50,81.25c14.386,0,26.8-4.077,33.081-10.028l-.012.012A7.411,7.411,0,0,1,84.375,75Zm-12.9-6.812A60.117,60.117,0,0,1,50,71.875c-20.258,0-34.375-8.24-34.375-15.625a7.01,7.01,0,0,1,.922-3.2,59.251,59.251,0,0,0,10.071,2.387C31.28,63.141,45.575,68.75,62.5,68.75a72.615,72.615,0,0,0,9-.568C71.49,68.182,71.484,68.188,71.472,68.188ZM62.5,59.375a61.2,61.2,0,0,1-20.618-3.339C59.5,55,73.419,47.925,74.847,39.014A26.574,26.574,0,0,0,84.7,32.1h-.006c7.568,3.076,12.183,7.471,12.183,11.646C96.875,51.135,82.758,59.375,62.5,59.375ZM56.677,23.3c0-.659-.525-1.166-1.575-1.5A54.07,54.07,0,0,0,48.1,20.5q-4.88-.687-7.629-1.367A13.188,13.188,0,0,1,36,17.236a3.5,3.5,0,0,1-1.715-2.844c0-1.416,1.025-2.7,3.064-3.833S42.6,8.74,46.985,8.484V6.25h5.921V8.484q9.924.495,12.848,4.6L57.6,14.453c-1.593-1.88-4.047-2.82-7.379-2.82a10.491,10.491,0,0,0-4.022.635c-1.013.415-1.52.928-1.52,1.526s.488,1.074,1.465,1.4a48.6,48.6,0,0,0,6.262,1.209q5.273.787,8.27,1.489a14.016,14.016,0,0,1,4.791,1.935,3.519,3.519,0,0,1,1.788,2.887c0,1.7-1.233,3.1-3.692,4.23s-6.012,1.795-10.657,2v2.893H46.985V28.955Q35.367,28.47,32.6,23.425l9.155-.977q1.273,3.168,8.423,3.168a13.3,13.3,0,0,0,4.926-.678C56.153,24.487,56.677,23.944,56.677,23.3Z" fill="#dedede"/>
</svg>
