<svg xmlns="http://www.w3.org/2000/svg" width="83.889" height="90" viewBox="0 0 83.889 90"><g transform="translate(-17.6)"><g transform="translate(17.6)"><path d="M101.856,309.994a20.508,20.508,0,0,1-2.917-.139l.278-2.778a16.805,16.805,0,0,0,2.639.139Zm2.917,0-.278-2.778c.833-.139,1.806-.139,2.639-.278l.417,2.778A20.87,20.87,0,0,0,104.772,309.994Zm-8.75-.417a16.243,16.243,0,0,1-2.778-.694l.694-2.639a14.755,14.755,0,0,0,2.639.556Zm14.444-.694-.694-2.639,2.5-.833.972,2.639A12.4,12.4,0,0,1,110.467,308.883Zm-20-.833a21.373,21.373,0,0,1-2.639-1.111l1.111-2.5a18.554,18.554,0,0,0,2.5.972Zm25.417-1.111-1.111-2.5c.833-.417,1.528-.833,2.361-1.25l1.389,2.361A24.142,24.142,0,0,1,115.883,306.939ZM85.189,305.55a24.154,24.154,0,0,1-2.5-1.528l1.667-2.222a19.446,19.446,0,0,0,2.222,1.389Zm35.694-1.528-1.528-2.222,2.083-1.667,1.806,2.083A26.709,26.709,0,0,1,120.883,304.022Zm-40.417-1.806a26.663,26.663,0,0,1-2.083-1.944l1.944-1.944a24.817,24.817,0,0,0,1.944,1.806Zm44.861-1.806-1.944-1.944a11.993,11.993,0,0,0,1.806-1.944l2.083,1.806A26.663,26.663,0,0,1,125.328,300.411Zm-48.889-2.222c-.556-.694-1.25-1.528-1.806-2.361l2.222-1.528,1.667,2.083Zm52.639-2.222-2.222-1.667a19.45,19.45,0,0,0,1.389-2.222l2.361,1.389A24.162,24.162,0,0,1,129.078,295.967Zm-55.972-2.5c-.417-.833-.972-1.667-1.389-2.639l2.5-1.111c.417.833.833,1.528,1.25,2.361Zm58.889-2.5-2.5-1.25a18.551,18.551,0,0,0,.972-2.5l2.639.972C132.689,289.161,132.411,289.994,131.994,290.967Zm-61.389-2.778c-.278-.972-.556-1.806-.833-2.778l2.639-.694.833,2.5Zm63.333-2.639-2.639-.694a14.754,14.754,0,0,0,.556-2.639l2.778.417A22.205,22.205,0,0,1,133.939,285.55Zm-64.722-3.056-.417-2.917,2.778-.278c.139.833.139,1.806.278,2.639Zm65.694-2.778-2.778-.278a16.808,16.808,0,0,0,.139-2.639h2.778A18.646,18.646,0,0,1,134.911,279.717Z" transform="translate(-59.911 -228.744)" fill="#0f2547"/><path d="M59.683,319.406h-.139a15.945,15.945,0,0,1-2.639-.139l.139-2.778c.833,0,1.667.139,2.5.139Zm2.917,0-.139-2.778a17.014,17.014,0,0,0,2.639-.278l.417,2.778A20.717,20.717,0,0,0,62.6,319.406Zm-8.611-.278c-.972-.139-1.944-.278-2.778-.417l.556-2.778c.833.139,1.806.278,2.639.417Zm14.306-.556-.556-2.778a18.507,18.507,0,0,0,2.639-.694l.694,2.639A12.4,12.4,0,0,1,68.294,318.572Zm-20-.694c-.972-.278-1.806-.556-2.778-.833l.972-2.639,2.5.833Zm25.417-.833-.972-2.639c.833-.278,1.667-.694,2.5-.972l1.111,2.5C75.517,316.35,74.683,316.628,73.711,317.044Zm-30.833-.972c-.833-.417-1.806-.833-2.639-1.25l1.25-2.5c.833.417,1.667.833,2.361,1.111Zm36.111-1.389-1.25-2.5a20.9,20.9,0,0,0,2.361-1.389l1.528,2.361C80.656,313.711,79.822,314.267,78.989,314.683Zm-41.111-1.25c-.833-.556-1.667-.972-2.361-1.528l1.667-2.222c.694.556,1.528.972,2.222,1.528Zm46.111-1.806-1.667-2.222,2.083-1.667,1.806,2.083A25.355,25.355,0,0,1,83.989,311.628ZM33.156,310.1a27.817,27.817,0,0,1-2.222-1.944l1.944-2.083c.694.556,1.389,1.25,2.083,1.806Zm55.139-2.083-1.944-2.083a25.673,25.673,0,0,0,1.944-1.944l2.083,1.944Zm-59.306-1.806c-.694-.694-1.25-1.389-1.944-2.222l2.083-1.806a24.125,24.125,0,0,0,1.806,2.083Zm63.194-2.361L90.1,302.044l1.667-2.083,2.222,1.528A26.713,26.713,0,0,1,92.183,303.85Zm-66.806-2.083a22.62,22.62,0,0,1-1.528-2.361l2.361-1.389c.417.556.833,1.389,1.389,2.083Zm70.139-2.639-2.361-1.389c.417-.694.833-1.528,1.25-2.361l2.5,1.25A22.475,22.475,0,0,1,95.517,299.128Zm-73.194-2.361c-.417-.833-.833-1.667-1.25-2.639l2.5-1.111c.417.833.694,1.667,1.111,2.361Zm75.833-2.778-2.5-1.111a18.549,18.549,0,0,0,.972-2.5l2.639.972C98.85,292.183,98.572,293.156,98.156,293.989Zm-78.056-2.5c-.278-.972-.556-1.806-.833-2.778l2.639-.694.833,2.5Zm80-2.917-2.639-.694a14.753,14.753,0,0,0,.556-2.639l2.778.556A27.009,27.009,0,0,0,100.1,288.572Zm-81.667-2.5a22.509,22.509,0,0,1-.417-2.778l2.778-.417c.139.833.278,1.806.417,2.639Zm82.778-3.056-2.778-.417c.139-.833.139-1.806.278-2.639l2.778.139C101.35,281.072,101.35,282.044,101.211,283.017Zm-83.472-2.639c0-.972-.139-1.944-.139-2.778h2.778a16.808,16.808,0,0,0,.139,2.639Z" transform="translate(-17.6 -229.406)" fill="#0f2547"/><path d="M29.128,48.056H26.35A33.432,33.432,0,0,1,56.628,15l1.389-.139.417,3.056,8.333-6.944L56.906,5.139l.417,3.75-1.389.139A39.114,39.114,0,0,0,20.378,48.056H17.6A41.737,41.737,0,0,1,54.128,6.528L53.294,0,71.489,10.694,56.072,23.333l-.694-5.417A30.751,30.751,0,0,0,29.128,48.056Z" transform="translate(-17.6)" fill="#0f2547"/></g><path d="M156.823,158.283a21.068,21.068,0,1,1-20.139,22.083A21.135,21.135,0,0,1,156.823,158.283Z" transform="translate(-98.39 -130.783)" fill="#fff"/><path d="M151.315,195.291a22.6,22.6,0,0,1-16.944-37.639,22.381,22.381,0,0,1,15.694-7.361A22.624,22.624,0,0,1,168.12,187.93a22.381,22.381,0,0,1-15.694,7.361Zm0-42.222h-.972a20.164,20.164,0,0,0-13.75,6.528,19.565,19.565,0,0,0-5,14.167,19.861,19.861,0,0,0,20.833,18.75,20.164,20.164,0,0,0,13.75-6.528,19.565,19.565,0,0,0,5-14.167A19.829,19.829,0,0,0,151.315,153.068Z" transform="translate(-91.77 -124.18)" fill="#0f2547"/><path d="M185.727,222.311a15.567,15.567,0,0,1-.694-31.111h.833a15.567,15.567,0,0,1,.694,31.111C186.282,222.172,186,222.311,185.727,222.311Z" transform="translate(-126.182 -158.006)" fill="#ffbf5d"/><path d="M234.078,226.383a2.5,2.5,0,1,1,2.5-2.5h2.778a5.374,5.374,0,0,0-3.889-5.139V216.8h-2.778v1.944a5.3,5.3,0,0,0,1.389,10.417,2.5,2.5,0,1,1-2.5,2.5H228.8a5.374,5.374,0,0,0,3.889,5.139v1.944h2.778V236.8a5.3,5.3,0,0,0-1.389-10.417Z" transform="translate(-174.533 -179.161)" fill="#0f2547"/></g></svg>