
<svg xmlns="http://www.w3.org/2000/svg" width="41.473" height="50" viewBox="0 0 41.473 50"><g transform="translate(-36.238 0)"><g transform="translate(36.238 0)"><g transform="translate(21.796 32.164)"><path d="M223.693,274.179a2.352,2.352,0,0,0-.66-.48,7.968,7.968,0,0,0-1.673-.591v4.427a3.144,3.144,0,0,0,2.479-1.307h0a2.022,2.022,0,0,0,.184-1.382A1.39,1.39,0,0,0,223.693,274.179Z" transform="translate(-221.36 -273.108)" fill="#004ba5"/></g><g transform="translate(24.279 35.284)"><path d="M242.6,299.909l0-.009h0Z" transform="translate(-242.604 -299.9)" fill="#004ba5"/></g><g transform="translate(17.093 24.977)"><path d="M181.74,213.2a1.66,1.66,0,0,0-.287.778,1.866,1.866,0,0,0,.095.86,1.38,1.38,0,0,0,.536.589,4.183,4.183,0,0,0,.8.411c.232.094.494.183.775.269v-4.006A3.057,3.057,0,0,0,181.74,213.2Z" transform="translate(-181.441 -212.106)" fill="#004ba5"/></g><g transform="translate(24.285 35.251)"><path d="M242.665,299.619l-.018.033h0Z" transform="translate(-242.647 -299.619)" fill="#004ba5"/></g><g transform="translate(24.327 35.207)"><path d="M243,299.246Z" transform="translate(-243.004 -299.244)" fill="#004ba5"/></g><g transform="translate(0 0)"><path d="M59.594,10.879C63.4,7.684,65.939.486,64.375.171,62.3-.247,57.784,1.588,55.6,1.911c-3.094.374-6.463-3.355-8.355-1.277-1.538,1.69,1.1,7.835,5.233,10.512-12.324,6.057-29.647,36.465.573,38.671C94.87,52.87,73.931,16.782,59.594,10.879ZM63.185,34.86a4.4,4.4,0,0,1-1.7,2.985,6.482,6.482,0,0,1-3.471,1.226v1.31a1.23,1.23,0,1,1-2.46,0V38.95c-.212-.04-.422-.088-.63-.145a6.038,6.038,0,0,1-3.009-1.851,5.423,5.423,0,0,1-.927-1.532c-.057-.146-.109-.295-.153-.445a2.282,2.282,0,0,1-.1-.416,1.23,1.23,0,0,1,2.391-.51c.047.142.079.287.131.427a2.741,2.741,0,0,0,.189.4,3.135,3.135,0,0,0,.54.691,3.661,3.661,0,0,0,1.565.853V31.558a8.753,8.753,0,0,1-3.225-1.394,3.752,3.752,0,0,1-1.089-1.308,4.094,4.094,0,0,1-.38-1.761,4.2,4.2,0,0,1,.368-1.783,4.346,4.346,0,0,1,1.009-1.385,6.16,6.16,0,0,1,3.316-1.47V21.1a1.23,1.23,0,1,1,2.46,0v1.352q.241.03.481.073a6.075,6.075,0,0,1,3.211,1.558,4.693,4.693,0,0,1,.983,1.413,4.507,4.507,0,0,1,.174.45,2.735,2.735,0,0,1,.116.439,1.23,1.23,0,0,1-2.365.622c-.052-.134-.077-.277-.13-.411a2.167,2.167,0,0,0-.2-.387,2.346,2.346,0,0,0-.581-.609,3.987,3.987,0,0,0-1.688-.66V29.6a15.616,15.616,0,0,1,2.1.624,4.911,4.911,0,0,1,2.564,2.007c-.087-.153-.172-.3,0,.005s.09.158,0,.007A4.387,4.387,0,0,1,63.185,34.86Z" transform="translate(-36.238 0)" fill="#004ba5"/></g><g transform="translate(24.248 35.316)"><path d="M242.355,300.169l-.018.032Z" transform="translate(-242.337 -300.169)" fill="#004ba5"/></g></g></g></svg>