<svg xmlns="http://www.w3.org/2000/svg" width="23.631" height="18" viewBox="0 0 23.631 18"><g transform="translate(0 -61)"><g transform="translate(0 61)"><path d="M21.554,61H2.077A2.08,2.08,0,0,0,0,63.077V76.923A2.08,2.08,0,0,0,2.077,79H21.554a2.08,2.08,0,0,0,2.077-2.077V63.077A2.08,2.08,0,0,0,21.554,61Zm-.287,1.385-9.408,9.408L2.37,62.385ZM1.385,76.636V63.357l6.668,6.611Zm.979.979,6.672-6.672,2.338,2.318a.692.692,0,0,0,.977,0l2.28-2.28,6.636,6.636Zm19.882-.979L15.61,70l6.636-6.636Z" transform="translate(0 -61)" fill="#004ba5"/></g></g></svg>