<svg xmlns="http://www.w3.org/2000/svg" width="190.478" height="497.365" viewBox="0 0 190.478 497.365"><ellipse cx="89.37" cy="16.42" rx="89.37" ry="16.42" transform="translate(11.738 464.525)" fill="#d1e3f1" opacity="0.6"/><g transform="translate(10.38)"><g transform="translate(128.807 416.098)"><path d="M266.693,208.45l10.843,14.52s-1.987,6.489-10.018,11.5l-12.977-16.7Z" transform="translate(-250.615 -208.45)" fill="#fda893"/><g transform="translate(0 12.128)"><path d="M271.382,223.555s-5.073-1.1-6.806.655-6.087,25.638-10.166,30.858.021,8.01,2.536,9.067,38.488-34.874,38.488-34.874-8.9-12.28-13.189-14.668S275.947,221.04,271.382,223.555Z" transform="translate(-252.683 -214.188)" fill="#ffbb4d"/></g></g><g transform="translate(24.33 439.812)"><path d="M237.632,220.875l-1.649,18.05s-5.812,3.487-15.133,1.839l1.522-21.093Z" transform="translate(-183.654 -219.67)" fill="#fda893"/><g transform="translate(0 14.305)"><path d="M243.745,230.69s-3.17-4.4-5.749-4.248-22.636,15.64-29.442,16.845-5.559,6.235-4.354,8.792c1.2,2.579,53.959,1.1,53.959,1.1s1.944-17.035.275-21.875S249.05,231.895,243.745,230.69Z" transform="translate(-203.251 -226.438)" fill="#ffbb4d"/></g></g><g transform="translate(50.81 238.072)"><path d="M253.4,131.237l10.969,90.714a304.082,304.082,0,0,1,19.212,30.414c7.862,14.33,28.829,51.508,28.829,51.508l-12.681,9.659-69.452-71.967L215.78,124.22Z" transform="translate(-215.78 -124.22)" fill="#001f37"/><path d="M254.01,220.427a14.186,14.186,0,0,0,5.749,6.446l14.732-12.428a21.867,21.867,0,0,0-5.009-6.806Z" transform="translate(-173.208 -31.326)" fill="#3b4464"/></g><g transform="translate(59.037 245.068)"><path d="M292.191,127.53s-7.968,51.867-33.373,89.362c0,0-3.8,36.5-10.293,55.925-2.832,8.5-8.349,48.8-8.349,48.8l-19.276-.867,7.059-108.4,18.325-84.817h45.907Z" transform="translate(-218.306 -127.53)" fill="#3b4464"/><path d="M220.47,218.63c-1.226,3.361-.888,6.679,0,10l22.319.613a25.9,25.9,0,0,0,.93-9.765Z" transform="translate(-219.673 -26.084)" fill="#22283d"/></g><g transform="translate(0 83.718)"><path d="M259.818,51.19s-17.268,39.249-26.081,53.22c0,0-5.221,3-29.379,16.021-8.56,4.608-11.667,6.489-11.667,6.489l-.951,14.436s50.387-9.342,63.132-18.536c0,0,9.109-23.355,11.5-46.646Z" transform="translate(-191.74 -51.19)" fill="#00d18e"/></g><g transform="translate(47.936 78.963)"><path d="M302.366,221.259l1.353-64.844,9.131-97.689-22.34-7.651-1.2-.423-5.009-1.712L265.78,51.645l-9.109-.909-3.847.528-1.353.169L234.562,53.7,214.42,215.806Z" transform="translate(-214.42 -48.94)" fill="#7fd7bb"/></g><g transform="translate(78.709 81.668)"><path d="M251.912,58.35l-.951,97.457-13.928,23.735L228.98,153.1,247.812,58.35Z" transform="translate(-228.98 -41.167)" fill="#ededed"/><path d="M248.7,62.014l-6.869,8.666L235.7,58.4l6.383-8.18Z" transform="translate(-221.497 -50.22)" fill="#fff"/></g><g transform="translate(72.849)"><path d="M280.033,39.669c0,15.535-9.553,26.229-25.088,26.229S228.61,54.4,228.61,38.866c0-15.514,9.194-27.286,24.708-27.286C271.938,11.58,280.033,24.156,280.033,39.669Z" transform="translate(-223.532 -11.58)" fill="#0c375a"/><g transform="translate(51.366 31.891)"><path d="M252.159,29.546s4.312-5.749,7.524-.993-1.332,18.811-9.173,15.366Z" transform="translate(-250.51 -26.669)" fill="#fd896b"/><g transform="translate(1.03 5.054)"><path d="M251.658,36.922a.654.654,0,0,0,.634-.486c1.226-4.333,5.707-6.087,5.749-6.108a.656.656,0,0,0-.465-1.226c-.211.085-5.157,2.008-6.552,7a.663.663,0,0,0,.465.824Z" transform="translate(-250.997 -29.06)" fill="#d65c48"/></g><g transform="translate(3.367 7.66)"><path d="M254.971,33.373a.712.712,0,0,0,.359-.106.634.634,0,0,0,.19-.909,6.141,6.141,0,0,0-2.494-2.008.658.658,0,1,0-.528,1.2,4.788,4.788,0,0,1,1.923,1.522A.613.613,0,0,0,254.971,33.373Z" transform="translate(-252.103 -30.293)" fill="#d65c48"/></g></g><g transform="translate(0 31.891)"><path d="M234.773,29.546s-4.312-5.749-7.524-.993,1.332,18.811,9.173,15.366Z" transform="translate(-226.207 -26.669)" fill="#fd896b"/><g transform="translate(1.697 5.054)"><path d="M233.816,36.922a.654.654,0,0,1-.634-.486c-1.226-4.333-5.707-6.087-5.749-6.108A.656.656,0,0,1,227.9,29.1c.211.085,5.157,2.008,6.552,7a.663.663,0,0,1-.465.824Z" transform="translate(-227.01 -29.06)" fill="#d65c48"/></g><g transform="translate(3.292 7.66)"><path d="M228.431,33.373a.712.712,0,0,1-.359-.106.634.634,0,0,1-.19-.909,6.14,6.14,0,0,1,2.494-2.008.658.658,0,1,1,.528,1.2,4.787,4.787,0,0,0-1.923,1.522A.613.613,0,0,1,228.431,33.373Z" transform="translate(-227.765 -30.293)" fill="#d65c48"/></g></g><path d="M235.75,40.47V55.244s2.874,6.087,8.5,6.573S256.167,55.9,256.167,55.9V41.442Z" transform="translate(-215.581 20.591)" fill="#fda893"/><path d="M235.75,40.47v6.193c3.783,4.185,10.483,5.242,20.417,3.783V41.463Z" transform="translate(-215.581 20.591)" fill="#fd896b"/><path d="M278.637,42.068c-.063.8-.127,1.627-.211,2.452-.211,2.071-.486,4.227-.867,6.341-.021.085-.021.148-.042.211-1.881,10.293-6.087,20.417-15.175,23.672C241.755,82.1,234.4,64.451,231.462,54.158c-.317-1.141-.613-2.409-.867-3.762a.653.653,0,0,0-.042-.169c-.3-1.522-.528-3.149-.74-4.819-.148-1.247-.3-2.494-.4-3.762-.3-3.065-.486-6.15-.613-8.9a14.557,14.557,0,0,1,9.3-14.267c8.454-3.255,21.262-5.812,33.415,1.078a14.593,14.593,0,0,1,7.4,12.407C278.954,34.819,278.911,38.306,278.637,42.068Z" transform="translate(-223.34 -7.554)" fill="#fda893"/><path d="M275.78,28.513A125.451,125.451,0,0,1,271.7,41.955c-4.523-4.734-17.9.021-17.9.021s-15.006-5.432-17.712,1.141c-1.733-3.17-3.044-9.955-3.931-14.6l-3.086-.8c.127,1.268.254,2.515.4,3.762.211,1.67.465,3.3.74,4.819.021.063.021.127.042.169.254,1.353.55,2.621.867,3.762C234.058,50.515,241.413,68.164,262,60.808c9.088-3.255,13.294-13.379,15.175-23.672.021-.063.021-.148.042-.211.38-2.135.655-4.269.867-6.341.085-.824.148-1.649.211-2.452Zm-9.638,22.362c-5.474,4.312-12.977,4.4-16.7,3.551a18.5,18.5,0,0,1-9.194-5.538c.507-3.191,3.191-5.96,13.992-4.481C267.3,41.11,266.692,48.381,266.142,50.875Z" transform="translate(-223.019 6.382)" fill="#0c375a"/><path d="M244.08,29.845c0,1.5.761,2.705,1.712,2.705s1.712-1.2,1.712-2.705-.761-2.705-1.712-2.705C244.862,27.14,244.08,28.366,244.08,29.845Z" transform="translate(-206.305 5.747)" fill="#0c375a"/><path d="M234.66,29.845c0,1.5.761,2.705,1.712,2.705s1.712-1.2,1.712-2.705-.761-2.705-1.712-2.705S234.66,28.366,234.66,29.845Z" transform="translate(-216.794 5.747)" fill="#0c375a"/><path d="M233.3,24.6s5.411-2.135,9.6-.338l-.423,2.325s-6.129-.507-9.194.74A4.158,4.158,0,0,1,233.3,24.6Z" transform="translate(-218.58 1.738)" fill="#0c375a"/><path d="M253.156,24.6s-5.411-2.135-9.6-.338l.423,2.325s6.129-.507,9.194.74A3.905,3.905,0,0,0,253.156,24.6Z" transform="translate(-206.884 1.738)" fill="#0c375a"/><g transform="translate(27.968 34.244)"><path d="M241.575,40.84a7.555,7.555,0,0,0,2.452-.211.669.669,0,1,0-.359-1.289c-.634.169-2.092.38-2.663-.063a.76.76,0,0,1-.254-.655,99.466,99.466,0,0,1,1.627-10.039.659.659,0,0,0-1.289-.275A98.8,98.8,0,0,0,239.44,38.6a2.042,2.042,0,0,0,.761,1.733A2.776,2.776,0,0,0,241.575,40.84Z" transform="translate(-239.44 -27.782)" fill="#fd896b"/></g><path d="M253.593,35.84c-.549,2.727-2.346,7.757-8.412,7.757-6.087,0-7.8-4.586-8.391-7.757h16.8Z" transform="translate(-214.423 15.435)" fill="#fff"/><path d="M229.465,42.434h3c-.338-3.022.761-6.658,1.67-9.088,2.05-5.516-2.325-7.947,1.226-10.695,3.53-2.769,12.343-1.585,18.473-1.775,6.15-.19,16.063-.106,18.473.444s1.078,4.544.211,7.651c-.888,3.086,2.959,6.51,3.593,9.722a13.85,13.85,0,0,1,0,3.762h2.515c.3-3.91.338-7.524.3-10.483a14.593,14.593,0,0,0-7.4-12.407c-12.153-6.89-24.961-4.312-33.415-1.078a14.51,14.51,0,0,0-9.3,14.267C228.915,35.713,229.127,39.094,229.465,42.434Z" transform="translate(-223.33 -7.539)" fill="#0c375a"/><g transform="translate(3.475 29.019)"><g transform="translate(8.219)"><path d="M239.645,41.119a7.9,7.9,0,1,1,7.9-7.9A7.92,7.92,0,0,1,239.645,41.119Zm0-14.562a6.679,6.679,0,1,0,6.679,6.679A6.693,6.693,0,0,0,239.645,26.557Z" transform="translate(-231.74 -25.31)" fill="#fff"/></g><g transform="translate(29.841)"><path d="M249.875,41.119a7.9,7.9,0,1,1,7.9-7.9A7.92,7.92,0,0,1,249.875,41.119Zm0-14.562a6.679,6.679,0,1,0,6.679,6.679A6.693,6.693,0,0,0,249.875,26.557Z" transform="translate(-241.97 -25.31)" fill="#fff"/></g><g transform="translate(0 1.315)"><path d="M237.4,29.986a.727.727,0,0,1-.444-.169h0c-.042-.042-3.635-3.53-8.349-2.431a.618.618,0,1,1-.275-1.2c5.39-1.247,9.321,2.579,9.49,2.748a.625.625,0,0,1,0,.867A.532.532,0,0,1,237.4,29.986Z" transform="translate(-227.851 -25.932)" fill="#fff"/></g><g transform="translate(43.836 1.157)"><path d="M249.2,30.069a.6.6,0,0,1-.507-.275.609.609,0,0,1,.169-.845c.232-.148,5.833-3.762,10.589-2.98a.622.622,0,1,1-.211,1.226c-4.291-.7-9.659,2.769-9.722,2.79A.7.7,0,0,1,249.2,30.069Z" transform="translate(-248.591 -25.858)" fill="#fff"/></g><g transform="translate(22.592 2.874)"><path d="M246.212,29.925c-.021-.021-1.479-2.008-3.4-2.008-1.9,0-3.234,1.987-3.234,1.987l-1.036-.676c.063-.106,1.691-2.557,4.269-2.557,2.557,0,4.333,2.409,4.4,2.515Z" transform="translate(-238.54 -26.67)" fill="#fff"/></g></g><path d="M252.86,43.93l2.325,2.24a9.24,9.24,0,0,1,2.114,8.962,9.407,9.407,0,0,1-.4,1.057h0l-7.228,20.586L238.72,57.245C238.72,57.224,249.351,53.187,252.86,43.93Z" transform="translate(-212.273 24.444)" fill="#00d18e"/><path d="M237.789,44.37a14.494,14.494,0,0,0-3.762,11.582l1.226,12.09,8.835-11.308C244.066,56.734,238.592,54.05,237.789,44.37Z" transform="translate(-217.62 24.934)" fill="#00d18e"/></g></g><g transform="translate(11.913 103.523)"><path d="M339.093,108.741A75.925,75.925,0,0,1,242.207,207.8c-1.712-.634-3.4-1.31-5.051-2.071a76.2,76.2,0,0,1-20.037-13.189c-1.162-1.057-2.3-2.177-3.4-3.318a75.721,75.721,0,0,1-15.979-24.919c-.338-.867-.676-1.754-.972-2.642A75.994,75.994,0,0,1,269.219,60.572c1.839.021,3.656.106,5.474.254a75.638,75.638,0,0,1,22.974,5.622c1.606.676,3.191,1.395,4.734,2.177a75.784,75.784,0,0,1,28.491,24.729,78.35,78.35,0,0,1,7.123,12.808C338.4,106.986,338.755,107.853,339.093,108.741Z" transform="translate(-192.465 -60.551)" fill="#ffce4f"/><path d="M295.521,83.677,244.6,201.931a75.733,75.733,0,0,1-20.375.38L282.5,69.22A76.573,76.573,0,0,1,295.521,83.677Z" transform="translate(-157.093 -50.917)" fill="#fff" opacity="0.2"/><path d="M263.508,60.814,205.913,192.531c-1.162-1.057-2.3-2.177-3.4-3.318l55.5-128.653C259.851,60.581,261.69,60.666,263.508,60.814Z" transform="translate(-181.28 -60.56)" fill="#fff" opacity="0.2"/><path d="M278.867,65.517,218.651,204.7c-1.712-.634-3.4-1.31-5.051-2.071L274.133,63.34C275.739,64.016,277.324,64.735,278.867,65.517Z" transform="translate(-168.931 -57.464)" fill="#fff" opacity="0.2"/><path d="M316.866,106.289c.338.867.655,1.733.972,2.621a60.7,60.7,0,0,1-112.865,44.343c-.359-.845-.74-1.712-1.078-2.579a60.688,60.688,0,1,1,112.97-44.385Z" transform="translate(-184.42 -52.52)" fill="#fa8a00"/><path d="M316.764,106.171a60.763,60.763,0,0,1-35.254,76.067c-.676.275-1.353.507-2.029.761a60.386,60.386,0,0,1-40.876-.233c-1.627-.592-3.213-1.247-4.8-1.966A60.955,60.955,0,0,1,214.7,166.915a57.413,57.413,0,0,1-3.72-4.438,60.78,60.78,0,0,1-7.1-11.963,60.787,60.787,0,0,1,35.254-76.088,59.906,59.906,0,0,1,11.646-3.276,57.836,57.836,0,0,1,5.981-.761,60.822,60.822,0,0,1,23.841,3c1.627.55,3.255,1.162,4.84,1.86a60.5,60.5,0,0,1,29.294,26.8Q315.845,104.079,316.764,106.171Z" transform="translate(-183.367 -49.802)" fill="#ffac00"/><path d="M284.162,93.642,248.886,174.57a60.291,60.291,0,0,1-20.776,3.445L271.8,77.79A60.866,60.866,0,0,1,284.162,93.642Z" transform="translate(-152.773 -41.373)" fill="#fff" opacity="0.2"/><path d="M251.331,70.31,209.25,166.815a57.413,57.413,0,0,1-3.72-4.438l39.8-91.327C247.336,70.712,249.323,70.458,251.331,70.31Z" transform="translate(-177.917 -49.703)" fill="#fff" opacity="0.2"/><path d="M267.986,73.59,221.128,181.107c-1.627-.592-3.213-1.247-4.8-1.966L263.146,71.73C264.773,72.28,266.4,72.892,267.986,73.59Z" transform="translate(-165.891 -48.121)" fill="#fff" opacity="0.2"/><g transform="translate(44.472 31.83)"><g transform="translate(1.564 2.98)"><path d="M264.6,147.137l3.678,9.384-11.921,4.692-3.53-8.962c-8.666,2.811-17.754,3.762-24.052,2.621l.719-17.078a43.734,43.734,0,0,0,21.664-2.262c5.664-2.219,7.228-4.206,6.425-6.235-2.917-7.44-33.289,11.413-41.954-10.652-3.762-9.553.021-20.311,13.125-27.709l-3.614-9.215,11.921-4.692,3.551,9.046A47.711,47.711,0,0,1,259.7,84.237l-.317,16.824a39.377,39.377,0,0,0-18.219,2.071c-5.833,2.283-7.038,4.713-6.235,6.742,2.79,7.1,33.183-11.667,41.764,10.145C280.281,129.172,276.815,139.718,264.6,147.137Z" transform="translate(-214.247 -77.03)" fill="#fa8a00"/></g><path d="M263.859,145.727l3.678,9.384L255.616,159.8l-3.53-8.962c-8.666,2.811-17.754,3.762-24.052,2.621l.719-17.078a43.734,43.734,0,0,0,21.664-2.262c5.664-2.219,7.228-4.206,6.425-6.235-2.917-7.44-33.289,11.413-41.954-10.652-3.762-9.553.021-20.311,13.125-27.709L224.4,80.312l11.921-4.692,3.551,9.046a47.711,47.711,0,0,1,19.086-1.839l-.317,16.824a39.377,39.377,0,0,0-18.219,2.071c-5.833,2.283-7.038,4.713-6.235,6.742,2.79,7.1,33.183-11.667,41.764,10.145C279.541,127.762,276.054,138.287,263.859,145.727Z" transform="translate(-213.507 -75.62)" fill="#ffce4f"/></g></g><path d="M249.023,142.666c-.423-1.036,1.9-4.269,4.269-7.186a3.5,3.5,0,0,1-.3-.275c-3.635,3.593-10.082,9.532-10.758,7.165-.444-1.543,4.9-6.806,8.222-9.892-.148-.19-.317-.38-.465-.55-3.995,3.593-11.984,10.356-12.6,7.63-.423-1.818,6.531-7.82,10.187-10.821-.127-.169-.254-.338-.359-.507-3.53,2.917-10.462,8.264-11.075,5.538-.571-2.452,10.589-10.1,10.589-10.1h0l3.8-3.382s-.972-1.458-4.65-.444-6.467-.19-2.473-2.515c4.523-2.621,9.279-3.53,12.364-5.453s7.757-.211,7.757-.211l7.9,5.686s-7.376,14.837-14.689,19.445h0C253.694,140.4,249.741,144.462,249.023,142.666Z" transform="translate(-131.929 99.084)" fill="#fda893"/><g transform="translate(128.253 88.749)"><path d="M276,53.57s26.145,37.072,31.492,70.7c0,0-2.05,22.383-49.817,59.1-3.889-1.162-7.292-3.931-10.166-8.454,0,0,29.083-32.993,38.657-53.029,0,0-11.244-21.41-22.129-41.891C264.059,79.99,264.63,62.574,276,53.57Z" transform="translate(-247.51 -53.57)" fill="#7fd7bb"/></g><g transform="translate(0 150.735)"><path d="M194.7,93.428,192.38,91.42s.211-7.1,2.853-8.327a2.207,2.207,0,0,1,2.6.634Z" transform="translate(-180.648 -82.898)" fill="#fd896b"/><path d="M187.317,96.036a8,8,0,0,1,2.367-8.919,8.242,8.242,0,0,1,5.981-1.712c7.968.613,14.14,3.656,13.21,6.869-.338,1.2-4.819,1.966-8.327,1.184a31.132,31.132,0,0,0,8.137,1.522c4.227.148,3.361,5.516-1.944,5.368-5.305-.169-6.172-.55-6.172-.55s4.333,1.458,6.89,1.247c2.557-.232,2.727,3.847-2.325,4.037-2.346.085-5.03.19-5.03.19s3.445.423,5.242.676c1.8.232,3.318,2.3-.233,3.424-2.811.888-10.568,2.769-12.681-.8C190.995,106.139,188.67,99.82,187.317,96.036Z" transform="translate(-186.829 -80.138)" fill="#fda893"/></g></svg>