<svg xmlns="http://www.w3.org/2000/svg" width="46" height="46" viewBox="0 0 46 46"><g fill="#3A99D8"><path d="M23.575 14.95H19.55v6.708h3.93c1.15 0 2.107-.287 2.683-.862.575-.575.958-1.342.958-2.396 0-1.054-.288-1.917-.958-2.587-.671-.48-1.534-.863-2.588-.863z"/><path d="M23 0C10.324 0 0 10.324 0 23s10.324 23 23 23 23-10.324 23-23S35.676 0 23 0zm7.769 24.533c-1.533 1.33-3.68 1.943-6.338 1.943h-4.089v8.075H15.64V11.653h8.893c1.738 0 3.271.307 4.498.92 1.329.614 2.351 1.534 2.965 2.658.715 1.125 1.022 2.453 1.022 3.987.102 2.249-.716 3.986-2.25 5.315z"/></g></svg>