<svg xmlns="http://www.w3.org/2000/svg" width="90" height="90" viewBox="0 0 90 90"><g transform="translate(0 -0.085)"><path d="M359.285,217v7.154a3.588,3.588,0,0,1-3.577,3.577H334.244a3.588,3.588,0,0,1-3.577-3.577V217a3.588,3.588,0,0,1,3.577-3.577h21.463A3.588,3.588,0,0,1,359.285,217Z" transform="translate(-271.073 -175.473)" fill="#fff"/><path d="M59.738,22.11H86.161A3.792,3.792,0,0,1,89.935,25.9V46.719H71.062A3.792,3.792,0,0,0,67.287,50.5v7.572a3.792,3.792,0,0,0,3.775,3.786H89.935V82.685a3.792,3.792,0,0,1-3.775,3.786h-30.2l-.076-.038A24.557,24.557,0,1,0,10.667,73.221V14.538a3.792,3.792,0,0,1,3.775-3.786H55.963a3.792,3.792,0,0,1,3.775,3.786Z" transform="translate(-8.878 -8.878)" fill="#fff"/><path d="M57.171,247.333a23.057,23.057,0,1,1,0-.392Q57.172,247.137,57.171,247.333Z" transform="translate(-8.878 -182.26)" fill="#ffbf5d"/><g transform="translate(0 0.085)"><path d="M332.585,345.061a1.789,1.789,0,0,1-1.789,1.789H309.333v3.577H330.8a5.366,5.366,0,0,0,5.366-5.366V330.752h-3.577Z" transform="translate(-253.317 -271.13)" fill="#0f2547"/><path d="M3.766,5.451A1.838,1.838,0,0,1,5.649,3.662H47.071a1.838,1.838,0,0,1,1.883,1.789v5.366H9.414v3.577H77.2a1.838,1.838,0,0,1,1.883,1.789V30.491h3.766V16.182A5.513,5.513,0,0,0,77.2,10.817H52.72V5.451A5.513,5.513,0,0,0,47.071.085H5.649A5.513,5.513,0,0,0,0,5.451V41.223H3.766Z" transform="translate(0 -0.085)" fill="#0f2547"/><path d="M346.829,202.752H325.366A5.366,5.366,0,0,0,320,208.118v7.154a5.366,5.366,0,0,0,5.366,5.366h21.463a5.366,5.366,0,0,0,5.366-5.366v-7.154A5.366,5.366,0,0,0,346.829,202.752Zm1.789,12.52a1.789,1.789,0,0,1-1.789,1.789H325.366a1.789,1.789,0,0,1-1.789-1.789v-7.154a1.789,1.789,0,0,1,1.789-1.789h21.463a1.789,1.789,0,0,1,1.789,1.789Z" transform="translate(-262.195 -166.68)" fill="#0f2547"/><path d="M25.183,213.419a25.026,25.026,0,1,0,25.041,25.04A25.026,25.026,0,0,0,25.183,213.419Zm18.094,36.566a21.449,21.449,0,1,1,3.37-11.526A21.449,21.449,0,0,1,43.276,249.985Z" transform="translate(-0.142 -173.471)" fill="#0f2547"/><path d="M99.642,270.329v-3.577H96.065v3.577H92.487v-3.577H88.91v3.577H87.122a1.789,1.789,0,0,0-1.789,1.789v21.463a1.789,1.789,0,0,0,1.789,1.789H88.91v3.577h3.577V295.37h3.577v3.577h3.577V295.37a7.154,7.154,0,0,0,4.727-12.52,7.154,7.154,0,0,0-4.727-12.52Zm0,21.463H88.91v-7.154H99.642a3.577,3.577,0,0,1,0,7.154Zm0-10.732H88.91v-7.154H99.642a3.577,3.577,0,0,1,0,7.154Z" transform="translate(-70.103 -217.861)" fill="#0f2547"/><path d="M234.667,352.085h3.577v3.577h-3.577Z" transform="translate(-193.334 -290.065)" fill="#0f2547"/><path d="M42.667,352.085h3.577v3.577H42.667Z" transform="translate(-35.513 -290.065)" fill="#0f2547"/><path d="M362.667,245.419h3.577V249h-3.577Z" transform="translate(-298.789 -202.193)" fill="#0f2547"/><path d="M371.609,126.361v-7.154a1.789,1.789,0,0,0-1.789-1.789h-7.154V121h5.366v5.366h3.577Z" transform="translate(-298.575 -96.675)" fill="#0f2547"/></g></g></svg>