<svg xmlns="http://www.w3.org/2000/svg" width="46" height="46" viewBox="0 0 46 46"><path fill="#E54D42" d="M23 0C10.324 0 0 10.324 0 23s10.324 23 23 23 23-10.324 23-23S35.676 0 23 0zm-8.791 30.871H9.098c-.307 0-.41-.102-.41-.409 0-.306 0-.51.41-.51 1.329 0 1.43-.205 1.43-1.534v-3.271c0-.307.103-.41.41-.307h1.329c.306 0 .409.102.409.409v3.68c0 .92.204 1.022 1.022 1.124h.409c.409 0 .51.103.51.511 0 .205 0 .307-.408.307zm.715-6.849c-2.453.205-4.906.205-7.36-.409-.102 0-.306-.102-.408-.102-.205-.102-.307-.102-.512-.204.41.102.512.102 1.023.102.92.102 1.84.204 2.862.204 1.431.103 2.862 0 4.191-.306 2.147-.511 3.271-2.25 2.964-4.396 0-.102 0-.204-.102-.409v-.511c0-.102 0-.102-.102-.204v-.103l-.307-.613c-1.022-1.533-2.657-1.635-4.293-1.533-.307 0-.307.204-.307.409v6.337c0 .41-.102.512-.51.512h-1.227c-.205 0-.307-.103-.307-.307V16.254c0-.41-.205-.614-.613-.614h-.818c-.307 0-.41 0-.41-.409 0-.307.205-.307.41-.307h6.542c1.431 0 2.658.614 3.578 1.84 0 0 .102.205.204.307 0 .102.102.102.102.205 0 .102.103.102.103.204l.306.92c0 .102.103.613.103.716v.51c0 .103 0 .512-.103.614-.306 1.636-1.329 2.658-2.862 3.271-.715.409-1.431.511-2.147.511zm23.614 6.85H33.12c-.307 0-.307-.205-.307-.41 0-.204-.102-.51.307-.51h.818c.613 0 .818-.205.818-.92.102-1.943.102-3.885.102-5.828v-4.497h-.102c-.41.715-.716 1.43-1.125 2.146 0 0 0 .103-.102.103 0 0 0 .102-.102.102-.103.102-.103.306-.205.409 0 0 0 .102-.102.102 0 .102 0 .102-.102.204 0 0 0 .103-.102.103-.614 1.533-1.432 2.964-2.147 4.395-.716 1.329-1.329 2.76-2.045 4.089-.102.102-.102.409-.306.409-.205 0-.205-.205-.307-.409C26.17 26.68 24.33 23 22.49 19.32c0-.102-.102-.204-.102-.307-.103-.204-.307-.51-.41-.817-.101.204-.101.408-.101.51v10.12c.204.818.306.92 1.124.92h.613c.41-.102.614.103.511.512 0 .306-.102.409-.408.409h-5.214c-.409 0-.306-.307-.409-.511 0-.307.103-.41.41-.41h.817c.818 0 1.124-.306 1.227-1.124.102-.715.102-1.43.204-2.146.102-1.023.102-2.147.102-3.17v-6.95c0-.512-.204-.614-.613-.716h-.409c-.409 0-.613-.204-.409-.613 0-.103.102-.103.205-.103h2.964c.102 0 .205.103.307.205.51 1.227 1.226 2.351 1.635 3.578 1.534 2.862 2.76 5.826 4.294 8.79 1.124-2.248 2.146-4.497 3.27-6.644 0-.102.103-.102.103-.204 0 0 0-.102.102-.102.818-1.738 1.636-3.476 2.454-5.316.102-.102.204-.204.306-.204h3.271c.307 0 .307.204.307.409 0 .204 0 .408-.307.408h-.409c-.817 0-.92.205-.92.92 0 2.556 0 5.01-.102 7.565v.92c0 .92.102 1.942 0 2.862 0 .409 0 .818.102 1.227 0 .204.307.51.614.51h.92c.306 0 .306.205.306.41 0 .306.103.613-.306.613z"/></svg>