<svg xmlns="http://www.w3.org/2000/svg" width="74" height="90" viewBox="0 0 74 90"><g transform="translate(-46)"><g transform="translate(81.369 6.533)"><path d="M247.641,40.01a1.631,1.631,0,1,0,1.631,1.631A1.628,1.628,0,0,0,247.641,40.01Z" transform="translate(-246.01 -40.01)" fill="#ffbf5d"/></g><g transform="translate(46)"><path d="M118.238,10.547a8.809,8.809,0,0,1-8.81-8.789A1.76,1.76,0,0,0,107.667,0H58.333a1.76,1.76,0,0,0-1.762,1.758,8.809,8.809,0,0,1-8.81,8.789A1.76,1.76,0,0,0,46,12.3V40.99A51.073,51.073,0,0,0,82.494,89.926a1.766,1.766,0,0,0,1.012,0A51.08,51.08,0,0,0,120,40.99V12.3A1.76,1.76,0,0,0,118.238,10.547ZM116.476,40.99A47.285,47.285,0,0,1,83,86.4,47.542,47.542,0,0,1,49.524,40.99V13.937A12.348,12.348,0,0,0,59.97,3.516h46.06a12.348,12.348,0,0,0,10.446,10.422Z" transform="translate(-46)" fill="#0f2547"/></g><g transform="translate(52.531 6.531)"><path d="M145.865,49.352a16.1,16.1,0,0,1-8.335-8.285A1.793,1.793,0,0,0,135.889,40H123.635a1.782,1.782,0,1,0,0,3.563h11.121a19.645,19.645,0,0,0,8.6,8.547V74.42a40.6,40.6,0,0,1-26.884,38.5,40.6,40.6,0,0,1-26.884-38.5V52.111a19.646,19.646,0,0,0,8.6-8.547H109.3a1.782,1.782,0,1,0,0-3.563H97.049a1.793,1.793,0,0,0-1.642,1.067,16.1,16.1,0,0,1-8.335,8.285A1.782,1.782,0,0,0,86,50.984V74.42A44.37,44.37,0,0,0,115.871,116.5a1.8,1.8,0,0,0,1.2,0A44.37,44.37,0,0,0,146.938,74.42V50.984A1.782,1.782,0,0,0,145.865,49.352Z" transform="translate(-86 -40)" fill="#0f2547"/></g><g transform="translate(68.305 26.654)"><path d="M180.695,146a14.695,14.695,0,1,0,14.695,14.695A14.711,14.711,0,0,0,180.695,146Zm0,26.124a11.429,11.429,0,1,1,11.429-11.429A11.442,11.442,0,0,1,180.695,172.124Z" transform="translate(-166 -146)" fill="#0f2547"/></g><g transform="translate(76.551 36.619)"><path d="M230.216,206.478a1.633,1.633,0,0,0-2.309,0l-7.009,7.009-2.111-2.111a1.633,1.633,0,1,0-2.309,2.309l3.265,3.266a1.633,1.633,0,0,0,2.309,0l8.164-8.164A1.633,1.633,0,0,0,230.216,206.478Z" transform="translate(-215.999 -206)" fill="#ffbf5d"/></g></g></svg>