<svg xmlns="http://www.w3.org/2000/svg" xmlns:xlink="http://www.w3.org/1999/xlink" width="16.689" height="30" viewBox="0 0 16.689 30"><defs><linearGradient id="a" x1="0.5" x2="0.5" y2="1" gradientUnits="objectBoundingBox"><stop offset="0" stop-color="#fdc003"/><stop offset="1" stop-color="#f58e0d"/></linearGradient></defs><path d="M4.4,26.866A3.127,3.127,0,0,1,7.49,23.731,3.134,3.134,0,1,1,7.49,30,3.127,3.127,0,0,1,4.4,26.866ZM5.21,18.2a7.451,7.451,0,0,1,2.727-6.187c1.343-1.14,3.623-2.4,3.623-4.6,0-1.873-1.628-2.768-3.664-2.768-4.152,0-3.256,3.134-5.455,3.134A2.334,2.334,0,0,1,0,5.455C0,3.257,2.524,0,8.019,0c5.21,0,8.67,2.89,8.67,6.717s-3.46,6.594-4.559,7.449c-2.239,1.75-2.279,2.972-2.279,5.088,0,.773-.407,1.669-2.4,1.669C5.78,20.923,5.21,20.312,5.21,18.2Z" fill="url(#a)"/></svg>