<svg xmlns="http://www.w3.org/2000/svg" width="90" height="90" viewBox="0 0 90 90"><g transform="translate(43.217 59.515)"><path d="M247.612,356.05a1.758,1.758,0,0,1-1.758-1.758V340.33a1.758,1.758,0,1,1,3.516,0v13.962A1.758,1.758,0,0,1,247.612,356.05Z" transform="translate(-245.854 -338.572)"/></g><circle cx="5.625" cy="5.625" r="5.625" transform="translate(69.249 8.095)" fill="#ffce4f"/><circle cx="4.922" cy="4.922" r="4.922" transform="translate(10.908 72.061)" fill="#ffbe52"/><circle cx="30.236" cy="30.236" r="30.236" transform="translate(14.761 14.761)" fill="#fff" opacity="0.18"/><g transform="translate(24.803 27.625)"><path d="M181.5,311.329a6.813,6.813,0,0,0-5.358-6.656l-8.409-1.839a2.3,2.3,0,0,1-1.811-2.249h-9.291a2.3,2.3,0,0,1-1.809,2.249l-8.364,1.835a6.813,6.813,0,0,0-5.353,6.655v3.92a30.229,30.229,0,0,0,40.394,0Z" transform="translate(-141.103 -275.373)" fill="#ffbf5d"/><path d="M227.516,308.872l-7.682,19.858-7.682-19.858,4.057-1.313h7.3Z" transform="translate(-199.663 -281.121)" fill="#fff"/><path d="M205.367,222.51v6.05a8.9,8.9,0,0,0,8.9,8.9h0a8.9,8.9,0,0,0,8.9-8.9v-6.05Z" transform="translate(-194.071 -211.022)" fill="#f1e0c6"/><path d="M212.664,157.158h11.873v5.892A5.534,5.534,0,0,1,219,168.584H205.366v-4.129A7.3,7.3,0,0,1,212.664,157.158Z" transform="translate(-194.07 -157.158)" fill="#e2e2e2"/></g><path d="M203.7,447.326a41.553,41.553,0,0,1-37.824,5.2,1.758,1.758,0,0,0-1.179,3.312,45.069,45.069,0,0,0,41.033-5.639,1.758,1.758,0,1,0-2.03-2.871Z" transform="translate(-134.781 -368.429)" fill="#0f2547"/><path d="M102.947,11.8a1.75,1.75,0,0,0,1.034-.338,41.539,41.539,0,0,1,39.942-4.945,1.758,1.758,0,1,0,1.317-3.26A45.054,45.054,0,0,0,101.91,8.623a1.758,1.758,0,0,0,1.037,3.178Z" transform="translate(-83.401)" fill="#0f2547"/><path d="M397.415,47.655a7.358,7.358,0,1,0-2.642,2.337,41.532,41.532,0,0,1,5.147,40.35,1.758,1.758,0,1,0,3.257,1.324,45.047,45.047,0,0,0-5.762-44.011Zm-8.8-1.469a3.867,3.867,0,1,1,5.469,0A3.872,3.872,0,0,1,388.613,46.186Z" transform="translate(-316.474 -29.731)" fill="#0f2547"/><path d="M15.829,210.1a6.647,6.647,0,0,0-3.131.776,1.754,1.754,0,0,0-.176-.27A41.55,41.55,0,0,1,5.555,171.91a1.758,1.758,0,1,0-3.342-1.091,45.065,45.065,0,0,0,7.559,41.972,1.75,1.75,0,0,0,.429.386,6.68,6.68,0,1,0,5.628-3.081Zm2.237,8.917h0a3.164,3.164,0,1,1,.927-2.237A3.143,3.143,0,0,1,18.067,219.013Z" transform="translate(0 -139.792)" fill="#0f2547"/><path d="M73.808,75.566a1.758,1.758,0,1,0-1.243-.515A1.768,1.768,0,0,0,73.808,75.566Z" transform="translate(-59.385 -59.385)" fill="#0f2547"/><path d="M421.708,419.95a1.758,1.758,0,1,0,1.243.515A1.771,1.771,0,0,0,421.708,419.95Z" transform="translate(-346.131 -346.131)" fill="#0f2547"/><path d="M74,105.992a32.028,32.028,0,0,0,31.954,31.992h.038A31.992,31.992,0,1,0,74,105.992ZM98.85,101.8h11.879a7.254,7.254,0,0,0,2.406-.41v4.763a7.143,7.143,0,0,1-14.285,0ZM114.5,94.51a3.78,3.78,0,0,1-3.776,3.776H98.85V95.915a5.546,5.546,0,0,1,5.54-5.54H114.5Zm9.927,33.164a28.355,28.355,0,0,1-15.854,6.677l6.175-15.963,5.7,1.247a5.085,5.085,0,0,1,3.975,4.938v3.095S124.432,127.672,124.432,127.674Zm-18.439-10.861a10.608,10.608,0,0,0,3.622-.635,4.085,4.085,0,0,0,1.691,1.375l-5.339,13.8-5.338-13.8a4.086,4.086,0,0,0,1.7-1.39A10.607,10.607,0,0,0,105.992,116.813Zm-8.81,1.577,6.172,15.955a28.355,28.355,0,0,1-15.8-6.672s0,0,0-.006v-3.1a5.085,5.085,0,0,1,3.972-4.938Zm37.287-12.4a28.347,28.347,0,0,1-6.535,18.132,8.625,8.625,0,0,0-6.727-7.924l-8.409-1.839-.01,0a10.64,10.64,0,0,0,3.862-8.2v-7.4a7.25,7.25,0,0,0,1.37-4.247V88.618a1.758,1.758,0,0,0-1.758-1.758H104.389a9.065,9.065,0,0,0-9.055,9.055v4.129a1.639,1.639,0,0,1,0,.582v5.529a10.64,10.64,0,0,0,3.85,8.193c-.016.005-.031.011-.048.015L90.772,116.2a8.626,8.626,0,0,0-6.721,7.926,28.471,28.471,0,1,1,50.418-18.132Z" transform="translate(-60.992 -60.992)" fill="#0f2547"/></svg>