<svg xmlns="http://www.w3.org/2000/svg" width="100" height="95.994" viewBox="0 0 100 95.994">
  <g id="wallet" transform="translate(0 -17.84)">
    <path id="Path_650" data-name="Path 650" d="M165.053,36.434l40.565-11.073-2.148-4.342a5.716,5.716,0,0,0-7.656-2.582l-36.314,18Z" transform="translate(-141.849 0)" fill="#dedede"/>
    <path id="Path_651" data-name="Path 651" d="M362.142,86.46a5.712,5.712,0,0,0-1.508.206l-9.53,2.605L322,97.213h47.433l-1.783-6.536A5.7,5.7,0,0,0,362.142,86.46Z" transform="translate(-286.395 -60.779)" fill="#dedede"/>
    <path id="Path_652" data-name="Path 652" d="M88.529,215.56H5.62a5.562,5.562,0,0,0-4.386,2.148A5.76,5.76,0,0,0,.2,219.777a6.018,6.018,0,0,0-.2,1.5v63.659a5.664,5.664,0,0,0,5.609,5.713H88.518a5.664,5.664,0,0,0,5.609-5.713v-15.94H60.844a9.632,9.632,0,0,1-9.535-9.713V246.572a9.764,9.764,0,0,1,2.7-6.765,9.386,9.386,0,0,1,6.82-2.937H94.127v-15.6A5.647,5.647,0,0,0,88.529,215.56Z" transform="translate(0 -176.812)" fill="#dedede"/>
    <path id="Path_653" data-name="Path 653" d="M536.028,438.258a5.709,5.709,0,0,0-2-1.188,5.826,5.826,0,0,0-1.851-.308H498.113a5.715,5.715,0,0,0-5.713,5.713v12.718a5.715,5.715,0,0,0,5.713,5.713h34.063a5.824,5.824,0,0,0,1.851-.308,5.542,5.542,0,0,0,2-1.188,5.693,5.693,0,0,0,1.863-4.216V442.474A5.693,5.693,0,0,0,536.028,438.258ZM510.043,449.97a2.858,2.858,0,0,1-2.857,2.857h-1.9a2.858,2.858,0,0,1-2.857-2.857v-1.9a2.8,2.8,0,0,1,1.1-2.24,2.886,2.886,0,0,1,1.76-.617h1.9a2.858,2.858,0,0,1,2.857,2.857v1.9Z" transform="translate(-437.89 -372.148)" fill="#dedede"/>
  </g>
</svg>
