<svg id="wallet-bitcoin" xmlns="http://www.w3.org/2000/svg" width="100" height="100" viewBox="0 0 100 100">
  <g id="Group_290" data-name="Group 290" transform="translate(70.8 58.992)">
    <g id="Group_289" data-name="Group 289">
      <path id="Path_654" data-name="Path 654" d="M388.674,302H371.107c-11.6,0-11.611,17.567,0,17.567h17.567a2.927,2.927,0,0,0,2.928-2.928V304.928A2.928,2.928,0,0,0,388.674,302Zm-17.567,11.711a2.928,2.928,0,1,1,2.928-2.928A2.928,2.928,0,0,1,371.107,313.711Z" transform="translate(-362.402 -302)" fill="#dedede"/>
    </g>
  </g>
  <g id="Group_292" data-name="Group 292" transform="translate(3.385 17.58)">
    <g id="Group_291" data-name="Group 291">
      <path id="Path_655" data-name="Path 655" d="M19.715,91.657a4.9,4.9,0,0,0-.007,8.393,11.492,11.492,0,0,0,5.962,1.661V90A11.492,11.492,0,0,0,19.715,91.657Z" transform="translate(-17.344 -90)" fill="#dedede"/>
    </g>
  </g>
  <g id="Group_294" data-name="Group 294" transform="translate(17.58)">
    <g id="Group_293" data-name="Group 293">
      <path id="Path_656" data-name="Path 656" d="M98.783,0A8.771,8.771,0,0,0,90,8.783V29.278h11.711V0Z" transform="translate(-90)" fill="#dedede"/>
    </g>
  </g>
  <g id="Group_296" data-name="Group 296" transform="translate(41.027)">
    <g id="Group_295" data-name="Group 295">
      <path id="Path_657" data-name="Path 657" d="M230.885,0H210V29.278h29.668V8.783A8.771,8.771,0,0,0,230.885,0Z" transform="translate(-210)" fill="#dedede"/>
    </g>
  </g>
  <g id="Group_298" data-name="Group 298" transform="translate(76.578 17.873)">
    <g id="Group_297" data-name="Group 297">
      <path id="Path_658" data-name="Path 658" d="M392,91.5v11.418h11.418A14.668,14.668,0,0,0,392,91.5Z" transform="translate(-392 -91.5)" fill="#dedede"/>
    </g>
  </g>
  <g id="Group_300" data-name="Group 300" transform="translate(0 30.629)">
    <g id="Group_299" data-name="Group 299">
      <path id="Path_659" data-name="Path 659" d="M79.5,179.118H94.144V175.8a14.574,14.574,0,0,0-5.873-11.647c0-.022.013-.041.013-.064v-2.928H11.719A17.451,17.451,0,0,1,0,156.592v54.732a14.661,14.661,0,0,0,14.649,14.639H79.5a14.661,14.661,0,0,0,14.649-14.639V208.4H79.5C60.143,208.4,60.132,179.118,79.5,179.118ZM49.807,208.4h-2.93v2.928c0,3.859-5.86,3.875-5.86,0V208.4H32.228c-3.862,0-3.878-5.856,0-5.856h2.93V184.974h-2.93c-3.862,0-3.878-5.856,0-5.856h8.789V176.19c0-3.859,5.86-3.875,5.86,0v2.928h2.93a8.761,8.761,0,0,1,6.5,14.639A8.761,8.761,0,0,1,49.807,208.4Z" transform="translate(0 -156.592)" fill="#dedede"/>
    </g>
  </g>
  <g id="Group_302" data-name="Group 302" transform="translate(41.019 70.706)">
    <g id="Group_301" data-name="Group 301">
      <path id="Path_660" data-name="Path 660" d="M218.783,362H210v5.856h8.783C222.654,367.856,222.654,362,218.783,362Z" transform="translate(-210 -362)" fill="#dedede"/>
    </g>
  </g>
  <g id="Group_304" data-name="Group 304" transform="translate(41.019 58.987)">
    <g id="Group_303" data-name="Group 303">
      <path id="Path_661" data-name="Path 661" d="M218.783,302H210v5.856h8.783C222.654,307.856,222.654,302,218.783,302Z" transform="translate(-210 -302)" fill="#dedede"/>
    </g>
  </g>
</svg>
