<svg xmlns="http://www.w3.org/2000/svg" width="180.828" height="494.84" viewBox="0 0 180.828 494.84"><g transform="translate(18)"><ellipse cx="89.37" cy="16.42" rx="89.37" ry="16.42" transform="translate(-18 462)" fill="#d1e3f1" opacity="0.6"/><path d="M40.93,50.06s22.277,31.767,33.056,54.784c18.98,24.306,18.6,38.89,35.064,56.348l-8.962,8.264-33.141-45.23c-1.8-2.959-4.756-6.658-6.7-10.039L41.691,81.827Z" transform="translate(45.575 28.866)" fill="#00d18e"/><g transform="translate(3.904)"><path d="M21.369,16.77S11.223,34.1,8.349,53.483C5.517,72.695,6.214,83.918,25.321,84.341c14.9.338,41.426,5.96,49.859-7C83.613,64.41,21.369,16.77,21.369,16.77Z" transform="translate(4.018 -8.205)" fill="#0c375a"/><g transform="translate(0 187.488)"><g transform="translate(0 35.309)"><g transform="translate(6.661)"><path d="M41.67,118.151,31.631,231.375c-8.644,9.807-16.909,34.134-19.128,60.237-1.2,14.119-5.58,38.213-7.5,48.337,4.291,2.156,8.412,4.608,12.66,6.827l36.184-89.4L83.308,118.13H41.67Z" transform="translate(-5 -118.13)" fill="#fd896b"/></g><g transform="translate(0 219.726)"><path d="M29.878,234.687c-4.037-4.481-7.715-8.2-9.131-9.6-1.86-1.86-7.672-2.663-12.068-3H8.594c-2.579-.021-5.073,3.17-5.791,5.453a24.118,24.118,0,0,0-.782,9.7c.676,5.812,1.712,14.816,2.071,21.178h5.39l.4-15.175s19.8,16.338,31.2,15.112C48.921,257.535,38.607,244.346,29.878,234.687Z" transform="translate(-1.849 -222.09)" fill="#0c375a"/><g transform="translate(6.83 0.021)"><path d="M21.291,237.127C13.788,234.316,7.87,226.391,5.08,222.1c4.4.338,10.209,1.12,12.068,3,1.395,1.395,5.094,5.115,9.131,9.6C26.195,237.127,24.863,238.459,21.291,237.127Z" transform="translate(-5.08 -222.1)" fill="#fd896b"/></g></g></g><g transform="translate(16.332 22.183)"><path d="M98.122,361.363c-5.051,3.551-16,4.164-16,4.164l-1.944-7-.021-.042c-.634-1.585-21.136-52.8-30.689-76.849-9.722-24.433-9.405-48.654-9.405-48.654C25.183,192.51,8.781,150.6,9.606,124.855L45.071,111.92,65.425,224.193l30.33,131.57h0Z" transform="translate(-9.576 -111.92)" fill="#fda893"/><g transform="translate(66.624 235.062)"><g transform="translate(0 0.261)"><path d="M85.783,252.343c-10.885,3.635-33.711-8.116-33.711-8.116l2.346,12.787H48.859s-3.4-10.082-5.77-16.951c-2.367-6.89-1.966-15.344-1.966-15.344s.528-.106,1.374-.254c.951-.169,2.3-.4,3.868-.613a46.314,46.314,0,0,1,9.131-.528,9.058,9.058,0,0,1,2.853.634c.106.042.211.085.3.127.063.021.106.063.169.085,1.67,1.057,6.066,3.91,10.969,7.419C80.351,239.176,93.223,249.849,85.783,252.343Z" transform="translate(-41.098 -223.259)" fill="#0c375a"/></g><g transform="translate(1.4)"><path d="M64.671,235.192c-7.123-1.036-18.113-6.827-22.911-10.61.951-.169,2.3-.4,3.868-.613,2.874-.4,6.214-1.014,8.919-.782a6.747,6.747,0,0,1,3.361,1.036c.063.021.106.063.169.085,1.67,1.057,6.066,3.91,10.969,7.419C69.469,234.156,68.433,235.742,64.671,235.192Z" transform="translate(-41.76 -223.136)" fill="#fda893"/></g></g></g><g transform="translate(13.18)"><path d="M10.654,108.2s-10,46.6,9.448,123.475c0,0,38.573,5.918,57.531-6.193,3.762-27.582,3.022-95.111,1.649-123.348C79.281,102.113,38.828,98.393,10.654,108.2Z" transform="translate(-8.084 -101.424)" fill="#3b4464"/></g></g><g transform="translate(8.394 73.642)"><g transform="translate(0 0.042)"><path d="M81.507,115.214l.3,46.879C63.161,178.2,13.175,168.18,13.175,168.18l8.94-42.715L5.82,64.383l11.033-5.538,2.24-1.12h0l4.84-2.431,3.53-1.775L39.235,47.58l21.178,2.748,7.334.951,6.51.845,2.515.317,3.234.423.824,34.6c2.283,4.946,4.164,10.441,4.291,15.344A15.951,15.951,0,0,1,81.845,113.1h0c-.021.021-.021.042-.042.063-.106.148-.211.275-.338.423l.042,1.564v.063Z" transform="translate(-5.82 -47.58)" fill="#00d18e"/></g><g transform="translate(21.643)"><path d="M49.011,50.308C47,55.993,43.3,60.622,35.357,61.467c-8.5.909-15.26-2.579-19.3-7.968L27.833,47.56Z" transform="translate(-16.06 -47.56)" fill="#fda893"/></g><g transform="translate(34.046 65.563)"><path d="M63.527,79l.042,1.564v.106a99.1,99.1,0,0,1-22.552,5.178,94.245,94.245,0,0,1-18.219.232.933.933,0,1,1,.148-1.86,95.89,95.89,0,0,0,40.9-5.643C63.738,78.728,63.632,78.876,63.527,79Z" transform="translate(-21.928 -78.58)" fill="#1c47c1"/></g></g><g transform="translate(18.378)"><g transform="translate(0 12.004)"><g transform="translate(48.879 23.05)"><path d="M35.255,32.044s4.1-5.474,7.165-.951c3.044,4.523-1.268,17.9-8.75,14.647Z" transform="translate(-33.67 -29.303)" fill="#fd896b"/><g transform="translate(1.016 4.791)"><path d="M34.783,39.073a.653.653,0,0,0,.613-.465c1.162-4.121,5.432-5.812,5.474-5.812a.641.641,0,0,0,.359-.824.625.625,0,0,0-.8-.359c-.19.085-4.925,1.9-6.256,6.658a.649.649,0,0,0,.444.782A.412.412,0,0,0,34.783,39.073Z" transform="translate(-34.151 -31.57)" fill="#d65c48"/></g><g transform="translate(3.24 7.291)"><path d="M37.923,35.685a.639.639,0,0,0,.338-.106.621.621,0,0,0,.19-.867,5.614,5.614,0,0,0-2.367-1.9.624.624,0,1,0-.507,1.141A4.558,4.558,0,0,1,37.4,35.389.628.628,0,0,0,37.923,35.685Z" transform="translate(-35.203 -32.753)" fill="#d65c48"/></g></g><g transform="translate(0 23.05)"><path d="M18.694,32.044s-4.1-5.474-7.165-.951C8.486,35.616,12.8,49,20.279,45.74Z" transform="translate(-10.544 -29.303)" fill="#fd896b"/><g transform="translate(1.598 4.791)"><path d="M17.789,39.073a.653.653,0,0,1-.613-.465C16.013,34.487,11.744,32.8,11.7,32.8a.641.641,0,0,1-.359-.824.625.625,0,0,1,.8-.359c.19.085,4.9,1.9,6.256,6.658a.649.649,0,0,1-.444.782A.412.412,0,0,1,17.789,39.073Z" transform="translate(-11.3 -31.57)" fill="#d65c48"/></g><g transform="translate(3.145 7.291)"><path d="M12.662,35.685a.639.639,0,0,1-.338-.106.621.621,0,0,1-.19-.867,5.614,5.614,0,0,1,2.367-1.9.624.624,0,0,1,.507,1.141,4.558,4.558,0,0,0-1.818,1.437A.628.628,0,0,1,12.662,35.685Z" transform="translate(-12.032 -32.753)" fill="#d65c48"/></g></g><path d="M39.075,43.246v13.78s-4.756,6.3-10.124,5.833-9.321-7.228-9.321-7.228V42.845l5.58-.275Z" transform="translate(-0.426 8.521)" fill="#fda893"/><path d="M39.075,43.246v6.785c-4.565,2.008-11.012,2.748-19.445,2.177V42.845l5.58-.275Z" transform="translate(-0.426 8.521)" fill="#fd896b"/><path d="M13,35.079a129.394,129.394,0,0,0,1.733,16.8c.254,1.289.528,2.494.824,3.593,2.79,9.807,9.807,26.61,29.4,19.614C53.621,72,57.615,62.365,59.412,52.558a95.777,95.777,0,0,0,1.31-18.2,13.854,13.854,0,0,0-7.038-11.815c-11.561-6.552-23.778-4.121-31.809-1.015A13.778,13.778,0,0,0,13,35.079Z" transform="translate(-7.828 -18.397)" fill="#fda893"/><path d="M28.73,32.329c0,1.416.74,2.579,1.627,2.579.909,0,1.627-1.141,1.627-2.579s-.74-2.579-1.627-2.579C29.449,29.771,28.73,30.912,28.73,32.329Z" transform="translate(9.708 -5.755)" fill="#0c375a"/><path d="M19.18,32.329c0,1.416.74,2.579,1.627,2.579s1.627-1.141,1.627-2.579-.74-2.579-1.627-2.579S19.18,30.912,19.18,32.329Z" transform="translate(-0.927 -5.755)" fill="#0c375a"/><path d="M35.133,27.907a27.91,27.91,0,0,0-7-1.057,1.2,1.2,0,0,0-1.2,1.416v.021a1.214,1.214,0,0,0,1.247.993c1.966-.085,7.144.19,9.574,1.184a1.973,1.973,0,0,0-.55-1.31A4.454,4.454,0,0,0,35.133,27.907Z" transform="translate(7.68 -8.984)" fill="#0c375a"/><path d="M19.683,27.937a27.91,27.91,0,0,1,7-1.057,1.2,1.2,0,0,1,1.2,1.416v.021a1.214,1.214,0,0,1-1.247.993c-1.966-.085-7.144.19-9.574,1.184a1.973,1.973,0,0,1,.55-1.31A4.287,4.287,0,0,1,19.683,27.937Z" transform="translate(-3.29 -8.951)" fill="#0c375a"/><g transform="translate(26.409 25.935)"><path d="M25.726,43.037A2.554,2.554,0,0,0,27.1,42.7a1.931,1.931,0,0,0,.909-1.543,97.067,97.067,0,0,0-.38-9.913.626.626,0,0,0-1.247.106,96.339,96.339,0,0,1,.38,9.68c-.042.38-.19.528-.317.592a3.768,3.768,0,0,1-2.536-.232.63.63,0,1,0-.486,1.162A6.879,6.879,0,0,0,25.726,43.037Z" transform="translate(-23.039 -30.668)" fill="#fd896b"/></g><path d="M35.895,38.41c-.486,2.409-2.071,6.827-7.419,6.827-5.368,0-6.869-4.037-7.376-6.827Z" transform="translate(1.211 3.888)" fill="#fff"/><g transform="translate(26.379 50.772)"><path d="M26.418,44.45a6.137,6.137,0,0,0,2.959-.867.631.631,0,1,0-.655-1.078h0a5.234,5.234,0,0,1-2.3.676,5.618,5.618,0,0,1-2.431-.676.641.641,0,0,0-.867.211.626.626,0,0,0,.211.867A6.6,6.6,0,0,0,26.418,44.45Z" transform="translate(-23.025 -42.419)" fill="#fd896b"/></g></g><path d="M11.791,40.368a2.078,2.078,0,0,0,1.522,1.162,36.339,36.339,0,0,0,.232,4.671c.782,9.131,3.086,10.737,3.614,8.475.338-1.5.317-10.1.148-12.914a31.794,31.794,0,0,0,3.339-.423l2.114-8.856.74,8.75c3.17,1.1,10.589-.655,10.589-.655l2.494-8.729,1.543,8.412c4.756,2.325,10.716.782,10.716.782l1.374-9.067,3.17,9.067s10.166,3.656,10.272,0c.063-2.114-1.479-8.095-2.79-12.724a19.211,19.211,0,0,0-9.236-11.73c-12.618-6.763-25.955-3.17-30.52-.444C11.39,21.938,11.791,40.368,11.791,40.368Z" transform="translate(-9.157 -12.718)" fill="#0c375a"/><path d="M36.155,17.09s8.666,9.955,11.413,27.73S54.142,75.741,43.426,81.6c-11.6,6.362-12.386-4.46-12.216-7.989.169-3.551,11.836-15.45,5.242-42.715C34.317,22.1,36.155,17.09,36.155,17.09Z" transform="translate(12.449 -7.849)" fill="#0c375a"/><path d="M12.92,38A1.479,1.479,0,1,0,14.4,36.52,1.47,1.47,0,0,0,12.92,38Z" transform="translate(-7.898 13.788)" fill="#fff"/></g></g><g transform="translate(0 96.95)"><path d="M146.638,106.782a75.925,75.925,0,0,1-96.886,99.063c-1.712-.634-3.4-1.31-5.051-2.071a76.2,76.2,0,0,1-20.037-13.189c-1.162-1.057-2.3-2.177-3.4-3.318A75.721,75.721,0,0,1,5.282,162.347c-.338-.867-.676-1.754-.972-2.642A76,76,0,0,1,76.763,58.592c1.839.021,3.656.106,5.474.254a75.638,75.638,0,0,1,22.974,5.622c1.606.676,3.191,1.395,4.734,2.177a75.783,75.783,0,0,1,28.491,24.729,78.355,78.355,0,0,1,7.123,12.808Q146.13,105.482,146.638,106.782Z" transform="translate(-0.001 -58.588)" fill="#ffce4f"/><path d="M103.061,81.717,52.145,199.971a75.731,75.731,0,0,1-20.375.38L90.041,67.26A75.3,75.3,0,0,1,103.061,81.717Z" transform="translate(35.375 -48.931)" fill="#fff" opacity="0.3"/><path d="M71.048,58.844,13.453,190.561c-1.162-1.057-2.3-2.177-3.4-3.318L65.552,58.59C67.412,58.611,69.23,58.7,71.048,58.844Z" transform="translate(11.188 -58.585)" fill="#fff" opacity="0.3"/><path d="M86.417,63.547,26.2,202.725c-1.712-.634-3.4-1.31-5.051-2.071L81.683,61.37C83.268,62.046,84.853,62.765,86.417,63.547Z" transform="translate(23.549 -55.49)" fill="#fff" opacity="0.3"/><path d="M124.412,104.319c.338.867.655,1.733.972,2.621A60.7,60.7,0,0,1,12.519,151.282c-.359-.845-.74-1.712-1.078-2.579a60.688,60.688,0,1,1,112.97-44.385Z" transform="translate(8.042 -50.545)" fill="#fa8a00"/><path d="M124.314,104.211A60.763,60.763,0,0,1,89.06,180.279c-.676.275-1.353.507-2.029.761a60.386,60.386,0,0,1-40.876-.233c-1.627-.592-3.213-1.247-4.8-1.966A60.955,60.955,0,0,1,22.25,164.955a57.413,57.413,0,0,1-3.72-4.439,60.779,60.779,0,0,1-7.1-11.963A60.787,60.787,0,0,1,46.683,72.465a59.907,59.907,0,0,1,11.646-3.276,57.508,57.508,0,0,1,6-.761,60.822,60.822,0,0,1,23.841,3c1.627.55,3.255,1.162,4.84,1.86a60.5,60.5,0,0,1,29.294,26.8C123,101.421,123.68,102.8,124.314,104.211Z" transform="translate(9.112 -47.817)" fill="#ffac00"/><path d="M91.7,91.682,56.426,172.61a60.289,60.289,0,0,1-20.776,3.445L79.337,75.83A60.171,60.171,0,0,1,91.7,91.682Z" transform="translate(39.696 -39.387)" fill="#fff" opacity="0.2"/><path d="M58.871,68.34,16.79,164.845a57.413,57.413,0,0,1-3.72-4.438L52.89,69.1A57.845,57.845,0,0,1,58.871,68.34Z" transform="translate(14.551 -47.728)" fill="#fff" opacity="0.2"/><path d="M75.526,71.62,28.668,179.137c-1.627-.592-3.213-1.247-4.8-1.966L70.686,69.76C72.313,70.31,73.94,70.944,75.526,71.62Z" transform="translate(26.578 -46.147)" fill="#fff" opacity="0.2"/><g transform="translate(44.481 31.835)"><g transform="translate(1.564 3.001)"><path d="M72.139,145.177l3.678,9.384L63.9,159.253l-3.53-8.962c-8.666,2.811-17.754,3.762-24.052,2.621l.719-17.078A43.734,43.734,0,0,0,58.7,133.574c5.664-2.219,7.228-4.206,6.425-6.235-2.917-7.44-33.289,11.413-41.954-10.652-3.762-9.553.021-20.311,13.125-27.709l-3.614-9.215L44.6,75.07l3.551,9.046a47.711,47.711,0,0,1,19.086-1.839L66.918,99.1A39.377,39.377,0,0,0,48.7,101.173c-5.833,2.283-7.038,4.713-6.235,6.742,2.79,7.1,33.183-11.667,41.764,10.145C87.821,127.191,84.355,137.737,72.139,145.177Z" transform="translate(-21.787 -75.07)" fill="#fa8a00"/></g><path d="M71.4,143.757l3.678,9.384-11.921,4.692-3.53-8.962c-8.666,2.811-17.754,3.762-24.052,2.621l.719-17.078a43.734,43.734,0,0,0,21.664-2.262c5.664-2.219,7.228-4.206,6.425-6.235-2.917-7.44-33.289,11.413-41.954-10.652-3.762-9.553.021-20.311,13.125-27.709l-3.614-9.215L43.859,73.65,47.41,82.7A47.711,47.711,0,0,1,66.5,80.857l-.317,16.824a39.377,39.377,0,0,0-18.219,2.071c-5.833,2.283-7.038,4.713-6.235,6.742,2.79,7.1,33.183-11.667,41.764,10.145C87.081,125.792,83.615,136.338,71.4,143.757Z" transform="translate(-21.047 -73.65)" fill="#ffce4f"/></g></g><g transform="translate(5.188 89.626)"><path d="M43.509,143.576c1.31-2.156-3.614-4.523-5.305-7.08s-4.925-9.828-3.3-10.4a21.488,21.488,0,0,1,5.094-.74c1.437-.148,3.3-1.8,2.262-2.642s-5.643-1.12-7.778-.74c-.761.148-2.473,1.015-3.509,1.395a6.559,6.559,0,0,1-4.734.127c-.592-1.987-1.2-4.206-1.712-5.39-2.05-.909-11.223.3-11.709,5.009a65.172,65.172,0,0,0,1.691,7.355c4.925,13.358,10.631,15.788,12.914,16.909s3.974-1.057,3.974-1.057a3.013,3.013,0,0,0,3.382-1.416c3.635.867,4.312-1.543,4.312-1.543S42.22,145.732,43.509,143.576Z" transform="translate(9.085 14.704)" fill="#fda893"/><path d="M27.616,71.878c-3.889,29.8-6.045,49.2-6.911,55.143-.042.3-.085.55-.127.782-.085.571-.148.867-.148.867l-4.5,1.522-.782.275h-.021l-10.61,3.572c-.169-.486-.317-.993-.465-1.522-5.643-20.163,5.516-76.553,5.516-76.553C21.317,50.7,27.616,71.878,27.616,71.878Z" transform="translate(-2.456 -55.122)" fill="#00d18e"/><g transform="translate(1.572 73.547)"><path d="M36.446,151.171c-4.819,3.678-9.046,5.242-12.914,5.516C12.288,130.226,5.335,112.556,3.2,93.746L10.259,92.1l2.431-.571h.021L19.58,89.92l.232.7c.085.275.19.613.338,1.015,1.374,4.333,5.136,16.655,8.349,29.8C32.473,137.644,36.446,151.171,36.446,151.171Z" transform="translate(-3.2 -89.92)" fill="#00d18e"/></g><g transform="translate(8.338 71.877)"><path d="M16.037,90.779l.232.7c-2.008.338-3.995.74-5.516,1.078h-.021c-1.712.38-2.874.676-2.917.7a1.237,1.237,0,0,1-.275.042,1.118,1.118,0,0,1-.8-.338,1.016,1.016,0,0,1-.3-.528,1.132,1.132,0,0,1,.824-1.395c.275-.063,4.586-1.162,9.046-1.9-.042.3-.085.55-.127.782C16.079,90.5,16.037,90.779,16.037,90.779Z" transform="translate(-6.401 -89.13)" fill="#7fd7bb"/></g></g><g transform="translate(137.391 178.749)"><path d="M71.16,107.647l2.959-.845s2.811-6.51.93-8.771a2.148,2.148,0,0,0-2.621-.507Z" transform="translate(-58.153 -97.29)" fill="#fd896b"/><path d="M88.053,115.181a8.026,8.026,0,0,0,1.627-9.088,8.189,8.189,0,0,0-4.692-4.079c-7.482-2.811-14.351-2.663-14.88.655-.19,1.247,3.53,3.8,7.059,4.586a31.258,31.258,0,0,1-8.032-2.05c-3.889-1.649-5.39,3.593-.507,5.686S74.441,113,74.441,113s-4.544-.507-6.763-1.775c-2.219-1.289-4.1,2.325.4,4.65,2.071,1.078,4.481,2.283,4.481,2.283s-3.318-1.078-5.03-1.606c-1.733-.55-3.995.676-1.226,3.213,2.177,1.987,8.412,6.954,11.836,4.629C80.444,122.79,85.22,118.056,88.053,115.181Z" transform="translate(-65.006 -94.235)" fill="#fda893"/></g></g></svg>